<mxfile host="65bd71144e">
    <diagram id="vOHxT3JWUUyc1Gbjrobd" name="Design-Interviews">
        <mxGraphModel dx="790" dy="527" grid="1" gridSize="10" guides="1" tooltips="1" connect="1" arrows="1" fold="1" page="1" pageScale="1" pageWidth="850" pageHeight="1100" math="0" shadow="0">
            <root>
                <mxCell id="0"/>
                <mxCell id="1" parent="0"/>
                <mxCell id="OrIDWXb5mLOPvRGpg2cg-191" value="" style="rounded=0;whiteSpace=wrap;html=1;" vertex="1" parent="1">
                    <mxGeometry x="70.7" y="2170" width="290" height="200" as="geometry"/>
                </mxCell>
                <mxCell id="8" value="" style="sketch=0;outlineConnect=0;fontColor=#232F3E;gradientColor=none;strokeColor=#232F3E;fillColor=#ffffff;dashed=0;verticalLabelPosition=bottom;verticalAlign=top;align=center;html=1;fontSize=12;fontStyle=0;aspect=fixed;shape=mxgraph.aws4.resourceIcon;resIcon=mxgraph.aws4.internet;" vertex="1" parent="1">
                    <mxGeometry x="255.45000000000002" y="68" width="50" height="50" as="geometry"/>
                </mxCell>
                <mxCell id="2" value="" style="sketch=0;aspect=fixed;pointerEvents=1;shadow=0;dashed=0;html=1;strokeColor=none;labelPosition=center;verticalLabelPosition=bottom;verticalAlign=top;align=center;fillColor=#00188D;shape=mxgraph.azure.laptop" vertex="1" parent="1">
                    <mxGeometry x="182.72" y="48" width="50" height="30" as="geometry"/>
                </mxCell>
                <mxCell id="3" value="" style="sketch=0;verticalLabelPosition=bottom;sketch=0;aspect=fixed;html=1;verticalAlign=top;strokeColor=none;fillColor=#00188D;align=center;outlineConnect=0;pointerEvents=1;shape=mxgraph.citrix2.mobile;" vertex="1" parent="1">
                    <mxGeometry x="232.72" y="48" width="15.15" height="30" as="geometry"/>
                </mxCell>
                <mxCell id="4" value="" style="sketch=0;aspect=fixed;pointerEvents=1;shadow=0;dashed=0;html=1;strokeColor=none;labelPosition=center;verticalLabelPosition=bottom;verticalAlign=top;align=center;fillColor=#00188D;shape=mxgraph.azure.laptop" vertex="1" parent="1">
                    <mxGeometry x="247.87" y="48" width="50" height="30" as="geometry"/>
                </mxCell>
                <mxCell id="5" value="" style="sketch=0;verticalLabelPosition=bottom;sketch=0;aspect=fixed;html=1;verticalAlign=top;strokeColor=none;fillColor=#00188D;align=center;outlineConnect=0;pointerEvents=1;shape=mxgraph.citrix2.mobile;" vertex="1" parent="1">
                    <mxGeometry x="297.87" y="48" width="15.15" height="30" as="geometry"/>
                </mxCell>
                <mxCell id="6" value="" style="sketch=0;aspect=fixed;pointerEvents=1;shadow=0;dashed=0;html=1;strokeColor=none;labelPosition=center;verticalLabelPosition=bottom;verticalAlign=top;align=center;fillColor=#00188D;shape=mxgraph.azure.laptop" vertex="1" parent="1">
                    <mxGeometry x="313.02" y="48" width="50" height="30" as="geometry"/>
                </mxCell>
                <mxCell id="7" value="" style="sketch=0;verticalLabelPosition=bottom;sketch=0;aspect=fixed;html=1;verticalAlign=top;strokeColor=none;fillColor=#00188D;align=center;outlineConnect=0;pointerEvents=1;shape=mxgraph.citrix2.mobile;" vertex="1" parent="1">
                    <mxGeometry x="363.02" y="48" width="15.15" height="30" as="geometry"/>
                </mxCell>
                <mxCell id="9" value="" style="sketch=0;outlineConnect=0;fontColor=#232F3E;gradientColor=none;fillColor=#232F3D;strokeColor=none;dashed=0;verticalLabelPosition=bottom;verticalAlign=top;align=center;html=1;fontSize=12;fontStyle=0;aspect=fixed;pointerEvents=1;shape=mxgraph.aws4.traditional_server;" vertex="1" parent="1">
                    <mxGeometry x="175.15" y="208" width="28.85" height="50" as="geometry"/>
                </mxCell>
                <mxCell id="10" value="" style="sketch=0;outlineConnect=0;fontColor=#232F3E;gradientColor=none;fillColor=#232F3D;strokeColor=none;dashed=0;verticalLabelPosition=bottom;verticalAlign=top;align=center;html=1;fontSize=12;fontStyle=0;aspect=fixed;pointerEvents=1;shape=mxgraph.aws4.traditional_server;" vertex="1" parent="1">
                    <mxGeometry x="218.3" y="208" width="28.85" height="50" as="geometry"/>
                </mxCell>
                <mxCell id="11" value="" style="sketch=0;outlineConnect=0;fontColor=#232F3E;gradientColor=none;fillColor=#232F3D;strokeColor=none;dashed=0;verticalLabelPosition=bottom;verticalAlign=top;align=center;html=1;fontSize=12;fontStyle=0;aspect=fixed;pointerEvents=1;shape=mxgraph.aws4.traditional_server;" vertex="1" parent="1">
                    <mxGeometry x="261.45" y="208" width="28.85" height="50" as="geometry"/>
                </mxCell>
                <mxCell id="12" value="" style="sketch=0;outlineConnect=0;fontColor=#232F3E;gradientColor=none;fillColor=#232F3D;strokeColor=none;dashed=0;verticalLabelPosition=bottom;verticalAlign=top;align=center;html=1;fontSize=12;fontStyle=0;aspect=fixed;pointerEvents=1;shape=mxgraph.aws4.traditional_server;" vertex="1" parent="1">
                    <mxGeometry x="305.45" y="208" width="28.85" height="50" as="geometry"/>
                </mxCell>
                <mxCell id="13" value="" style="sketch=0;outlineConnect=0;fontColor=#232F3E;gradientColor=none;fillColor=#232F3D;strokeColor=none;dashed=0;verticalLabelPosition=bottom;verticalAlign=top;align=center;html=1;fontSize=12;fontStyle=0;aspect=fixed;pointerEvents=1;shape=mxgraph.aws4.traditional_server;" vertex="1" parent="1">
                    <mxGeometry x="348.59999999999997" y="208" width="28.85" height="50" as="geometry"/>
                </mxCell>
                <mxCell id="14" value="&lt;font style=&quot;color: rgb(255, 255, 255);&quot;&gt;memcached&lt;/font&gt;" style="rounded=0;whiteSpace=wrap;html=1;fillColor=#6D8764;" vertex="1" parent="1">
                    <mxGeometry x="175.15" y="261" width="220" height="17" as="geometry"/>
                </mxCell>
                <mxCell id="50" style="edgeStyle=none;html=1;strokeColor=#009999;" edge="1" parent="1" source="15">
                    <mxGeometry relative="1" as="geometry">
                        <mxPoint x="185.15" y="198" as="targetPoint"/>
                    </mxGeometry>
                </mxCell>
                <mxCell id="51" style="edgeStyle=none;html=1;strokeColor=#009999;" edge="1" parent="1" source="15">
                    <mxGeometry relative="1" as="geometry">
                        <mxPoint x="235.15" y="198" as="targetPoint"/>
                    </mxGeometry>
                </mxCell>
                <mxCell id="52" style="edgeStyle=none;html=1;strokeColor=#009999;" edge="1" parent="1" source="15">
                    <mxGeometry relative="1" as="geometry">
                        <mxPoint x="275.88" y="198" as="targetPoint"/>
                    </mxGeometry>
                </mxCell>
                <mxCell id="53" style="edgeStyle=none;html=1;strokeColor=#009999;" edge="1" parent="1" source="15">
                    <mxGeometry relative="1" as="geometry">
                        <mxPoint x="315.15" y="198" as="targetPoint"/>
                    </mxGeometry>
                </mxCell>
                <mxCell id="54" style="edgeStyle=none;html=1;strokeColor=#009999;" edge="1" parent="1" source="15">
                    <mxGeometry relative="1" as="geometry">
                        <mxPoint x="365.15" y="198" as="targetPoint"/>
                    </mxGeometry>
                </mxCell>
                <mxCell id="15" value="" style="sketch=0;outlineConnect=0;fontColor=#232F3E;gradientColor=none;fillColor=#8C4FFF;strokeColor=none;dashed=0;verticalLabelPosition=bottom;verticalAlign=top;align=center;html=1;fontSize=12;fontStyle=0;aspect=fixed;pointerEvents=1;shape=mxgraph.aws4.network_load_balancer;" vertex="1" parent="1">
                    <mxGeometry x="255.88000000000002" y="118" width="40" height="40" as="geometry"/>
                </mxCell>
                <mxCell id="16" value="NoSQL" style="shape=cylinder3;whiteSpace=wrap;html=1;boundedLbl=1;backgroundOutline=1;size=5.5000000000001705;" vertex="1" parent="1">
                    <mxGeometry x="253.88000000000002" y="328" width="48" height="60" as="geometry"/>
                </mxCell>
                <mxCell id="17" value="Assets" style="childLayout=tableLayout;recursiveResize=0;strokeColor=#FFFFFF;fillColor=#A7C942;shadow=1;" vertex="1" parent="1">
                    <mxGeometry x="410" y="300" width="237.70000000000005" height="96" as="geometry"/>
                </mxCell>
                <mxCell id="18" style="shape=tableRow;horizontal=0;startSize=0;swimlaneHead=0;swimlaneBody=0;top=0;left=0;bottom=0;right=0;dropTarget=0;collapsible=0;recursiveResize=0;expand=0;fontStyle=0;strokeColor=inherit;fillColor=#6D8764;" vertex="1" parent="17">
                    <mxGeometry width="237.70000000000005" height="33" as="geometry"/>
                </mxCell>
                <mxCell id="19" value="ID" style="connectable=0;recursiveResize=0;strokeColor=inherit;fillColor=#6D8764;align=left;fontStyle=1;fontColor=#FFFFFF;html=1;spacingLeft=4;" vertex="1" parent="18">
                    <mxGeometry width="48" height="33" as="geometry">
                        <mxRectangle width="48" height="33" as="alternateBounds"/>
                    </mxGeometry>
                </mxCell>
                <mxCell id="20" value="&lt;font style=&quot;color: rgb(255, 255, 255);&quot;&gt;Short&amp;nbsp;&lt;/font&gt;&lt;div&gt;&lt;font style=&quot;color: rgb(255, 255, 255);&quot;&gt;URL&lt;/font&gt;&lt;/div&gt;" style="connectable=0;recursiveResize=0;strokeColor=inherit;fillColor=#6D8764;align=left;fontStyle=1;fontColor=#FFFFFF;html=1;spacingLeft=4;" vertex="1" parent="18">
                    <mxGeometry x="48" width="60" height="33" as="geometry">
                        <mxRectangle width="60" height="33" as="alternateBounds"/>
                    </mxGeometry>
                </mxCell>
                <mxCell id="21" value="Long&amp;nbsp;&lt;div&gt;&lt;font style=&quot;color: rgb(255, 255, 255);&quot;&gt;URL&lt;/font&gt;&lt;/div&gt;" style="connectable=0;recursiveResize=0;strokeColor=inherit;fillColor=#6D8764;align=left;fontStyle=1;fontColor=#FFFFFF;html=1;spacingLeft=4;" vertex="1" parent="18">
                    <mxGeometry x="108" width="70" height="33" as="geometry">
                        <mxRectangle width="70" height="33" as="alternateBounds"/>
                    </mxGeometry>
                </mxCell>
                <mxCell id="38" value="userID" style="connectable=0;recursiveResize=0;strokeColor=inherit;fillColor=#6D8764;align=left;fontStyle=1;fontColor=#FFFFFF;html=1;spacingLeft=4;" vertex="1" parent="18">
                    <mxGeometry x="178" width="60" height="33" as="geometry">
                        <mxRectangle width="60" height="33" as="alternateBounds"/>
                    </mxGeometry>
                </mxCell>
                <mxCell id="22" value="" style="shape=tableRow;horizontal=0;startSize=0;swimlaneHead=0;swimlaneBody=0;top=0;left=0;bottom=0;right=0;dropTarget=0;collapsible=0;recursiveResize=0;expand=0;fontStyle=0;strokeColor=inherit;fillColor=#9AC7BF;" vertex="1" parent="17">
                    <mxGeometry y="33" width="237.70000000000005" height="32" as="geometry"/>
                </mxCell>
                <mxCell id="23" value="" style="connectable=0;recursiveResize=0;strokeColor=inherit;fillColor=inherit;align=center;whiteSpace=wrap;html=1;" vertex="1" parent="22">
                    <mxGeometry width="48" height="32" as="geometry">
                        <mxRectangle width="48" height="32" as="alternateBounds"/>
                    </mxGeometry>
                </mxCell>
                <mxCell id="24" value="" style="connectable=0;recursiveResize=0;strokeColor=inherit;fillColor=inherit;align=center;whiteSpace=wrap;html=1;" vertex="1" parent="22">
                    <mxGeometry x="48" width="60" height="32" as="geometry">
                        <mxRectangle width="60" height="32" as="alternateBounds"/>
                    </mxGeometry>
                </mxCell>
                <mxCell id="25" value="" style="connectable=0;recursiveResize=0;strokeColor=inherit;fillColor=inherit;align=center;whiteSpace=wrap;html=1;" vertex="1" parent="22">
                    <mxGeometry x="108" width="70" height="32" as="geometry">
                        <mxRectangle width="70" height="32" as="alternateBounds"/>
                    </mxGeometry>
                </mxCell>
                <mxCell id="39" style="connectable=0;recursiveResize=0;strokeColor=inherit;fillColor=inherit;align=center;whiteSpace=wrap;html=1;" vertex="1" parent="22">
                    <mxGeometry x="178" width="60" height="32" as="geometry">
                        <mxRectangle width="60" height="32" as="alternateBounds"/>
                    </mxGeometry>
                </mxCell>
                <mxCell id="26" value="" style="shape=tableRow;horizontal=0;startSize=0;swimlaneHead=0;swimlaneBody=0;top=0;left=0;bottom=0;right=0;dropTarget=0;collapsible=0;recursiveResize=0;expand=0;fontStyle=1;strokeColor=inherit;fillColor=#EAF2D3;" vertex="1" parent="17">
                    <mxGeometry y="65" width="237.70000000000005" height="31" as="geometry"/>
                </mxCell>
                <mxCell id="27" value="" style="connectable=0;recursiveResize=0;strokeColor=inherit;fillColor=inherit;whiteSpace=wrap;html=1;" vertex="1" parent="26">
                    <mxGeometry width="48" height="31" as="geometry">
                        <mxRectangle width="48" height="31" as="alternateBounds"/>
                    </mxGeometry>
                </mxCell>
                <mxCell id="28" value="" style="connectable=0;recursiveResize=0;strokeColor=inherit;fillColor=inherit;whiteSpace=wrap;html=1;" vertex="1" parent="26">
                    <mxGeometry x="48" width="60" height="31" as="geometry">
                        <mxRectangle width="60" height="31" as="alternateBounds"/>
                    </mxGeometry>
                </mxCell>
                <mxCell id="29" value="" style="connectable=0;recursiveResize=0;strokeColor=inherit;fillColor=inherit;whiteSpace=wrap;html=1;" vertex="1" parent="26">
                    <mxGeometry x="108" width="70" height="31" as="geometry">
                        <mxRectangle width="70" height="31" as="alternateBounds"/>
                    </mxGeometry>
                </mxCell>
                <mxCell id="40" style="connectable=0;recursiveResize=0;strokeColor=inherit;fillColor=inherit;whiteSpace=wrap;html=1;" vertex="1" parent="26">
                    <mxGeometry x="178" width="60" height="31" as="geometry">
                        <mxRectangle width="60" height="31" as="alternateBounds"/>
                    </mxGeometry>
                </mxCell>
                <mxCell id="43" value="URLs" style="text;html=1;align=center;verticalAlign=middle;resizable=0;points=[];autosize=1;strokeColor=none;fillColor=none;" vertex="1" parent="1">
                    <mxGeometry x="405.45" y="278" width="50" height="30" as="geometry"/>
                </mxCell>
                <mxCell id="44" value="" style="sketch=0;outlineConnect=0;fontColor=#232F3E;gradientColor=none;strokeColor=#000099;fillColor=#ffffff;dashed=0;verticalLabelPosition=bottom;verticalAlign=top;align=center;html=1;fontSize=12;fontStyle=0;aspect=fixed;shape=mxgraph.aws4.resourceIcon;resIcon=mxgraph.aws4.table;" vertex="1" parent="1">
                    <mxGeometry x="325.15" y="328" width="40" height="40" as="geometry"/>
                </mxCell>
                <mxCell id="48" value="Load Balancer" style="text;html=1;align=left;verticalAlign=middle;resizable=0;points=[];autosize=1;strokeColor=none;fillColor=none;" vertex="1" parent="1">
                    <mxGeometry x="305.45" y="123" width="100" height="30" as="geometry"/>
                </mxCell>
                <mxCell id="49" value="Geo-Routing" style="text;html=1;align=center;verticalAlign=middle;resizable=0;points=[];autosize=1;strokeColor=none;fillColor=none;" vertex="1" parent="1">
                    <mxGeometry x="435.15" y="123" width="90" height="30" as="geometry"/>
                </mxCell>
                <mxCell id="55" style="edgeStyle=none;html=1;strokeColor=#009999;startArrow=classic;startFill=1;endArrow=none;endFill=0;exitX=0.463;exitY=0.022;exitDx=0;exitDy=0;exitPerimeter=0;" edge="1" parent="1" source="16">
                    <mxGeometry relative="1" as="geometry">
                        <mxPoint x="185.15" y="288" as="targetPoint"/>
                        <mxPoint x="256.15" y="326" as="sourcePoint"/>
                    </mxGeometry>
                </mxCell>
                <mxCell id="56" style="edgeStyle=none;html=1;strokeColor=#009999;startArrow=classic;startFill=1;endArrow=none;endFill=0;exitX=0.5;exitY=0;exitDx=0;exitDy=0;exitPerimeter=0;" edge="1" parent="1" source="16">
                    <mxGeometry relative="1" as="geometry">
                        <mxPoint x="235.15" y="288" as="targetPoint"/>
                        <mxPoint x="262.15" y="333" as="sourcePoint"/>
                    </mxGeometry>
                </mxCell>
                <mxCell id="57" style="edgeStyle=none;html=1;strokeColor=#009999;startArrow=classic;startFill=1;endArrow=none;endFill=0;exitX=0.469;exitY=0.05;exitDx=0;exitDy=0;exitPerimeter=0;" edge="1" parent="1" source="16">
                    <mxGeometry relative="1" as="geometry">
                        <mxPoint x="276.15" y="288" as="targetPoint"/>
                        <mxPoint x="276.15" y="333" as="sourcePoint"/>
                    </mxGeometry>
                </mxCell>
                <mxCell id="58" style="edgeStyle=none;html=1;strokeColor=#009999;startArrow=classic;startFill=1;endArrow=none;endFill=0;exitX=0.44;exitY=0.018;exitDx=0;exitDy=0;exitPerimeter=0;" edge="1" parent="1" source="16">
                    <mxGeometry relative="1" as="geometry">
                        <mxPoint x="315.15" y="288" as="targetPoint"/>
                        <mxPoint x="289.15" y="333" as="sourcePoint"/>
                    </mxGeometry>
                </mxCell>
                <mxCell id="59" style="edgeStyle=none;html=1;strokeColor=#009999;startArrow=classic;startFill=1;endArrow=none;endFill=0;exitX=0.428;exitY=-0.001;exitDx=0;exitDy=0;exitPerimeter=0;" edge="1" parent="1" source="16">
                    <mxGeometry relative="1" as="geometry">
                        <mxPoint x="365.15" y="288" as="targetPoint"/>
                        <mxPoint x="296.15" y="326" as="sourcePoint"/>
                    </mxGeometry>
                </mxCell>
                <mxCell id="60" value="GET /abc123" style="text;html=1;align=left;verticalAlign=middle;resizable=0;points=[];autosize=1;strokeColor=none;fillColor=none;" vertex="1" parent="1">
                    <mxGeometry x="5.15" y="68" width="90" height="30" as="geometry"/>
                </mxCell>
                <mxCell id="NdPYWldVcCUI9Mhn2iDV-60" value="&lt;font style=&quot;font-size: 26px; color: rgb(255, 128, 0);&quot;&gt;Restaurant Reservation System&lt;/font&gt;" style="text;html=1;align=left;verticalAlign=middle;resizable=0;points=[];autosize=1;strokeColor=none;fillColor=none;" vertex="1" parent="1">
                    <mxGeometry x="241.72" y="410" width="390" height="40" as="geometry"/>
                </mxCell>
                <mxCell id="NdPYWldVcCUI9Mhn2iDV-61" value="" style="sketch=0;outlineConnect=0;fontColor=#232F3E;gradientColor=none;strokeColor=#000099;fillColor=#ffffff;dashed=0;verticalLabelPosition=bottom;verticalAlign=top;align=center;html=1;fontSize=12;fontStyle=0;aspect=fixed;shape=mxgraph.aws4.resourceIcon;resIcon=mxgraph.aws4.table;" vertex="1" parent="1">
                    <mxGeometry x="300.84000000000003" y="864.12" width="40" height="40" as="geometry"/>
                </mxCell>
                <mxCell id="NdPYWldVcCUI9Mhn2iDV-62" value="" style="sketch=0;outlineConnect=0;fontColor=#232F3E;gradientColor=none;strokeColor=#232F3E;fillColor=#ffffff;dashed=0;verticalLabelPosition=bottom;verticalAlign=top;align=center;html=1;fontSize=12;fontStyle=0;aspect=fixed;shape=mxgraph.aws4.resourceIcon;resIcon=mxgraph.aws4.internet;" vertex="1" parent="1">
                    <mxGeometry x="163.36052540165008" y="480.5882352941177" width="76.47058823529412" height="76.47058823529412" as="geometry"/>
                </mxCell>
                <mxCell id="NdPYWldVcCUI9Mhn2iDV-63" value="" style="sketch=0;aspect=fixed;pointerEvents=1;shadow=0;dashed=0;html=1;strokeColor=none;labelPosition=center;verticalLabelPosition=bottom;verticalAlign=top;align=center;fillColor=#00188D;shape=mxgraph.azure.laptop" vertex="1" parent="1">
                    <mxGeometry x="27.564172818063383" y="450" width="76.47058823529412" height="45.88235294117647" as="geometry"/>
                </mxCell>
                <mxCell id="NdPYWldVcCUI9Mhn2iDV-64" value="" style="sketch=0;verticalLabelPosition=bottom;sketch=0;aspect=fixed;html=1;verticalAlign=top;strokeColor=none;fillColor=#00188D;align=center;outlineConnect=0;pointerEvents=1;shape=mxgraph.citrix2.mobile;" vertex="1" parent="1">
                    <mxGeometry x="120.92066435084672" y="450" width="23.17058823529412" height="45.88235294117647" as="geometry"/>
                </mxCell>
                <mxCell id="NdPYWldVcCUI9Mhn2iDV-65" value="" style="sketch=0;aspect=fixed;pointerEvents=1;shadow=0;dashed=0;html=1;strokeColor=none;labelPosition=center;verticalLabelPosition=bottom;verticalAlign=top;align=center;fillColor=#00188D;shape=mxgraph.azure.laptop" vertex="1" parent="1">
                    <mxGeometry x="149.20768128528016" y="450" width="76.47058823529412" height="45.88235294117647" as="geometry"/>
                </mxCell>
                <mxCell id="NdPYWldVcCUI9Mhn2iDV-66" value="" style="sketch=0;verticalLabelPosition=bottom;sketch=0;aspect=fixed;html=1;verticalAlign=top;strokeColor=none;fillColor=#00188D;align=center;outlineConnect=0;pointerEvents=1;shape=mxgraph.citrix2.mobile;" vertex="1" parent="1">
                    <mxGeometry x="242.56417281806353" y="450" width="23.17058823529412" height="45.88235294117647" as="geometry"/>
                </mxCell>
                <mxCell id="NdPYWldVcCUI9Mhn2iDV-67" value="" style="sketch=0;aspect=fixed;pointerEvents=1;shadow=0;dashed=0;html=1;strokeColor=none;labelPosition=center;verticalLabelPosition=bottom;verticalAlign=top;align=center;fillColor=#00188D;shape=mxgraph.azure.laptop" vertex="1" parent="1">
                    <mxGeometry x="270.8511897524968" y="450" width="76.47058823529412" height="45.88235294117647" as="geometry"/>
                </mxCell>
                <mxCell id="NdPYWldVcCUI9Mhn2iDV-68" value="" style="sketch=0;verticalLabelPosition=bottom;sketch=0;aspect=fixed;html=1;verticalAlign=top;strokeColor=none;fillColor=#00188D;align=center;outlineConnect=0;pointerEvents=1;shape=mxgraph.citrix2.mobile;" vertex="1" parent="1">
                    <mxGeometry x="364.2076812852802" y="450" width="23.17058823529412" height="45.88235294117647" as="geometry"/>
                </mxCell>
                <mxCell id="NdPYWldVcCUI9Mhn2iDV-69" value="" style="sketch=0;outlineConnect=0;fontColor=#232F3E;gradientColor=none;fillColor=#232F3D;strokeColor=none;dashed=0;verticalLabelPosition=bottom;verticalAlign=top;align=center;html=1;fontSize=12;fontStyle=0;aspect=fixed;pointerEvents=1;shape=mxgraph.aws4.traditional_server;" vertex="1" parent="1">
                    <mxGeometry x="13.430000000000007" y="683.71" width="37.67" height="65.29" as="geometry"/>
                </mxCell>
                <mxCell id="NdPYWldVcCUI9Mhn2iDV-70" value="" style="sketch=0;outlineConnect=0;fontColor=#232F3E;gradientColor=none;fillColor=#232F3D;strokeColor=none;dashed=0;verticalLabelPosition=bottom;verticalAlign=top;align=center;html=1;fontSize=12;fontStyle=0;aspect=fixed;pointerEvents=1;shape=mxgraph.aws4.traditional_server;" vertex="1" parent="1">
                    <mxGeometry x="94" y="683.71" width="37.67" height="65.29" as="geometry"/>
                </mxCell>
                <mxCell id="NdPYWldVcCUI9Mhn2iDV-71" value="" style="sketch=0;outlineConnect=0;fontColor=#232F3E;gradientColor=none;fillColor=#232F3D;strokeColor=none;dashed=0;verticalLabelPosition=bottom;verticalAlign=top;align=center;html=1;fontSize=12;fontStyle=0;aspect=fixed;pointerEvents=1;shape=mxgraph.aws4.traditional_server;" vertex="1" parent="1">
                    <mxGeometry x="182.76" y="683.71" width="37.67" height="65.29" as="geometry"/>
                </mxCell>
                <mxCell id="NdPYWldVcCUI9Mhn2iDV-72" value="" style="sketch=0;outlineConnect=0;fontColor=#232F3E;gradientColor=none;fillColor=#232F3D;strokeColor=none;dashed=0;verticalLabelPosition=bottom;verticalAlign=top;align=center;html=1;fontSize=12;fontStyle=0;aspect=fixed;pointerEvents=1;shape=mxgraph.aws4.traditional_server;" vertex="1" parent="1">
                    <mxGeometry x="263.17" y="683.71" width="37.67" height="65.29" as="geometry"/>
                </mxCell>
                <mxCell id="NdPYWldVcCUI9Mhn2iDV-73" value="" style="sketch=0;outlineConnect=0;fontColor=#232F3E;gradientColor=none;fillColor=#232F3D;strokeColor=none;dashed=0;verticalLabelPosition=bottom;verticalAlign=top;align=center;html=1;fontSize=12;fontStyle=0;aspect=fixed;pointerEvents=1;shape=mxgraph.aws4.traditional_server;" vertex="1" parent="1">
                    <mxGeometry x="347.32" y="683.71" width="37.67" height="65.29" as="geometry"/>
                </mxCell>
                <mxCell id="NdPYWldVcCUI9Mhn2iDV-74" style="edgeStyle=none;html=1;strokeColor=#009999;" edge="1" source="NdPYWldVcCUI9Mhn2iDV-79" parent="1">
                    <mxGeometry relative="1" as="geometry">
                        <mxPoint x="32.101298306556686" y="679.4117647058823" as="targetPoint"/>
                    </mxGeometry>
                </mxCell>
                <mxCell id="NdPYWldVcCUI9Mhn2iDV-75" style="edgeStyle=none;html=1;strokeColor=#009999;" edge="1" source="NdPYWldVcCUI9Mhn2iDV-79" parent="1">
                    <mxGeometry relative="1" as="geometry">
                        <mxPoint x="125.45778983934002" y="679.4117647058823" as="targetPoint"/>
                    </mxGeometry>
                </mxCell>
                <mxCell id="NdPYWldVcCUI9Mhn2iDV-76" style="edgeStyle=none;html=1;strokeColor=#009999;" edge="1" source="NdPYWldVcCUI9Mhn2iDV-79" parent="1">
                    <mxGeometry relative="1" as="geometry">
                        <mxPoint x="201.50598784194534" y="679.4117647058823" as="targetPoint"/>
                    </mxGeometry>
                </mxCell>
                <mxCell id="NdPYWldVcCUI9Mhn2iDV-77" style="edgeStyle=none;html=1;strokeColor=#009999;" edge="1" source="NdPYWldVcCUI9Mhn2iDV-79" parent="1">
                    <mxGeometry relative="1" as="geometry">
                        <mxPoint x="274.8281762917934" y="679.4117647058823" as="targetPoint"/>
                    </mxGeometry>
                </mxCell>
                <mxCell id="NdPYWldVcCUI9Mhn2iDV-78" style="edgeStyle=none;html=1;strokeColor=#009999;" edge="1" source="NdPYWldVcCUI9Mhn2iDV-79" parent="1">
                    <mxGeometry relative="1" as="geometry">
                        <mxPoint x="368.1846678245767" y="679.4117647058823" as="targetPoint"/>
                    </mxGeometry>
                </mxCell>
                <mxCell id="NdPYWldVcCUI9Mhn2iDV-79" value="" style="sketch=0;outlineConnect=0;fontColor=#232F3E;gradientColor=none;fillColor=#8C4FFF;strokeColor=none;dashed=0;verticalLabelPosition=bottom;verticalAlign=top;align=center;html=1;fontSize=12;fontStyle=0;aspect=fixed;pointerEvents=1;shape=mxgraph.aws4.network_load_balancer;" vertex="1" parent="1">
                    <mxGeometry x="164.16339122883204" y="557.0588235294117" width="61.1764705882353" height="61.1764705882353" as="geometry"/>
                </mxCell>
                <mxCell id="NdPYWldVcCUI9Mhn2iDV-80" value="NoSQL" style="shape=cylinder3;whiteSpace=wrap;html=1;boundedLbl=1;backgroundOutline=1;size=5.5000000000001705;" vertex="1" parent="1">
                    <mxGeometry x="173.20999999999998" y="878.24" width="66.62" height="91.76" as="geometry"/>
                </mxCell>
                <mxCell id="NdPYWldVcCUI9Mhn2iDV-81" value="Load Balancer" style="text;html=1;align=left;verticalAlign=middle;resizable=0;points=[];autosize=1;strokeColor=none;fillColor=none;" vertex="1" parent="1">
                    <mxGeometry x="234.87701693443347" y="564.7058823529412" width="100" height="30" as="geometry"/>
                </mxCell>
                <mxCell id="NdPYWldVcCUI9Mhn2iDV-82" style="edgeStyle=none;html=1;strokeColor=#009999;startArrow=classic;startFill=1;endArrow=none;endFill=0;exitX=0.463;exitY=0.022;exitDx=0;exitDy=0;exitPerimeter=0;" edge="1" source="NdPYWldVcCUI9Mhn2iDV-80" parent="1">
                    <mxGeometry relative="1" as="geometry">
                        <mxPoint x="23.430000000000007" y="780" as="targetPoint"/>
                        <mxPoint x="164.66751628310902" y="875.1764705882354" as="sourcePoint"/>
                    </mxGeometry>
                </mxCell>
                <mxCell id="NdPYWldVcCUI9Mhn2iDV-83" style="edgeStyle=none;html=1;strokeColor=#009999;startArrow=classic;startFill=1;endArrow=none;endFill=0;exitX=0.5;exitY=0;exitDx=0;exitDy=0;exitPerimeter=0;" edge="1" source="NdPYWldVcCUI9Mhn2iDV-80" parent="1">
                    <mxGeometry relative="1" as="geometry">
                        <mxPoint x="113.43" y="780" as="targetPoint"/>
                        <mxPoint x="175.87029526704305" y="885.8823529411765" as="sourcePoint"/>
                    </mxGeometry>
                </mxCell>
                <mxCell id="NdPYWldVcCUI9Mhn2iDV-84" style="edgeStyle=none;html=1;strokeColor=#009999;startArrow=classic;startFill=1;endArrow=none;endFill=0;exitX=0.469;exitY=0.05;exitDx=0;exitDy=0;exitPerimeter=0;" edge="1" source="NdPYWldVcCUI9Mhn2iDV-80" parent="1">
                    <mxGeometry relative="1" as="geometry">
                        <mxPoint x="203.43" y="780" as="targetPoint"/>
                        <mxPoint x="202.01011289622232" y="885.8823529411765" as="sourcePoint"/>
                    </mxGeometry>
                </mxCell>
                <mxCell id="NdPYWldVcCUI9Mhn2iDV-85" style="edgeStyle=none;html=1;strokeColor=#009999;startArrow=classic;startFill=1;endArrow=none;endFill=0;exitX=0.44;exitY=0.018;exitDx=0;exitDy=0;exitPerimeter=0;" edge="1" source="NdPYWldVcCUI9Mhn2iDV-80" parent="1">
                    <mxGeometry relative="1" as="geometry">
                        <mxPoint x="283.43" y="780" as="targetPoint"/>
                        <mxPoint x="226.28280069474607" y="885.8823529411765" as="sourcePoint"/>
                    </mxGeometry>
                </mxCell>
                <mxCell id="NdPYWldVcCUI9Mhn2iDV-86" style="edgeStyle=none;html=1;strokeColor=#009999;startArrow=classic;startFill=1;endArrow=none;endFill=0;exitX=0.428;exitY=-0.001;exitDx=0;exitDy=0;exitPerimeter=0;" edge="1" source="NdPYWldVcCUI9Mhn2iDV-80" parent="1">
                    <mxGeometry relative="1" as="geometry">
                        <mxPoint x="363.43" y="780" as="targetPoint"/>
                        <mxPoint x="239.35270950933574" y="875.1764705882354" as="sourcePoint"/>
                    </mxGeometry>
                </mxCell>
                <mxCell id="NdPYWldVcCUI9Mhn2iDV-87" value="" style="sketch=0;outlineConnect=0;fontColor=#232F3E;gradientColor=none;strokeColor=#000099;fillColor=#ffffff;dashed=0;verticalLabelPosition=bottom;verticalAlign=top;align=center;html=1;fontSize=12;fontStyle=0;aspect=fixed;shape=mxgraph.aws4.resourceIcon;resIcon=mxgraph.aws4.table;" vertex="1" parent="1">
                    <mxGeometry x="300.84000000000003" y="904.12" width="40" height="40" as="geometry"/>
                </mxCell>
                <mxCell id="NdPYWldVcCUI9Mhn2iDV-88" value="" style="sketch=0;outlineConnect=0;fontColor=#232F3E;gradientColor=none;strokeColor=#000099;fillColor=#ffffff;dashed=0;verticalLabelPosition=bottom;verticalAlign=top;align=center;html=1;fontSize=12;fontStyle=0;aspect=fixed;shape=mxgraph.aws4.resourceIcon;resIcon=mxgraph.aws4.table;" vertex="1" parent="1">
                    <mxGeometry x="300.84000000000003" y="944.12" width="40" height="40" as="geometry"/>
                </mxCell>
                <mxCell id="NdPYWldVcCUI9Mhn2iDV-89" value="Customers" style="text;html=1;align=left;verticalAlign=middle;resizable=0;points=[];autosize=1;strokeColor=none;fillColor=none;" vertex="1" parent="1">
                    <mxGeometry x="347.32" y="869.12" width="80" height="30" as="geometry"/>
                </mxCell>
                <mxCell id="NdPYWldVcCUI9Mhn2iDV-90" value="Restaurants" style="text;html=1;align=left;verticalAlign=middle;resizable=0;points=[];autosize=1;strokeColor=none;fillColor=none;" vertex="1" parent="1">
                    <mxGeometry x="347.32" y="909.12" width="90" height="30" as="geometry"/>
                </mxCell>
                <mxCell id="NdPYWldVcCUI9Mhn2iDV-91" value="Reservations" style="text;html=1;align=left;verticalAlign=middle;resizable=0;points=[];autosize=1;strokeColor=none;fillColor=none;" vertex="1" parent="1">
                    <mxGeometry x="347.32" y="949.12" width="90" height="30" as="geometry"/>
                </mxCell>
                <mxCell id="NdPYWldVcCUI9Mhn2iDV-92" value="" style="sketch=0;outlineConnect=0;fontColor=#232F3E;gradientColor=none;fillColor=#232F3D;strokeColor=none;dashed=0;verticalLabelPosition=bottom;verticalAlign=top;align=center;html=1;fontSize=12;fontStyle=0;aspect=fixed;pointerEvents=1;shape=mxgraph.aws4.traditional_server;" vertex="1" parent="1">
                    <mxGeometry x="81.10000000000001" y="885" width="37.67" height="65.29" as="geometry"/>
                </mxCell>
                <mxCell id="NdPYWldVcCUI9Mhn2iDV-93" value="" style="sketch=0;outlineConnect=0;fontColor=#232F3E;gradientColor=none;fillColor=#232F3D;strokeColor=none;dashed=0;verticalLabelPosition=bottom;verticalAlign=top;align=center;html=1;fontSize=12;fontStyle=0;aspect=fixed;pointerEvents=1;shape=mxgraph.aws4.traditional_server;" vertex="1" parent="1">
                    <mxGeometry x="21.10000000000001" y="885" width="37.67" height="65.29" as="geometry"/>
                </mxCell>
                <mxCell id="NdPYWldVcCUI9Mhn2iDV-94" value="SMS Notifications" style="text;html=1;align=center;verticalAlign=middle;resizable=0;points=[];autosize=1;strokeColor=none;fillColor=none;" vertex="1" parent="1">
                    <mxGeometry x="11.670000000000002" y="968" width="120" height="30" as="geometry"/>
                </mxCell>
                <mxCell id="NdPYWldVcCUI9Mhn2iDV-95" value="Geo-Routing" style="text;html=1;align=center;verticalAlign=middle;resizable=0;points=[];autosize=1;strokeColor=none;fillColor=none;" vertex="1" parent="1">
                    <mxGeometry x="328.02" y="564.71" width="90" height="30" as="geometry"/>
                </mxCell>
                <mxCell id="NdPYWldVcCUI9Mhn2iDV-96" value="&lt;font style=&quot;color: rgb(255, 255, 255);&quot;&gt;memcached&lt;/font&gt;" style="rounded=0;whiteSpace=wrap;html=1;fillColor=#6D8764;" vertex="1" parent="1">
                    <mxGeometry x="13.430000000000007" y="751" width="370" height="17" as="geometry"/>
                </mxCell>
                <mxCell id="NdPYWldVcCUI9Mhn2iDV-97" value="&lt;font style=&quot;font-size: 26px; color: rgb(255, 128, 0);&quot;&gt;URL-Shortening System&lt;/font&gt;" style="text;html=1;align=left;verticalAlign=middle;resizable=0;points=[];autosize=1;strokeColor=none;fillColor=none;" vertex="1" parent="1">
                    <mxGeometry x="275" y="10" width="300" height="40" as="geometry"/>
                </mxCell>
                <mxCell id="NdPYWldVcCUI9Mhn2iDV-98" value="Assets" style="childLayout=tableLayout;recursiveResize=0;strokeColor=#FFFFFF;fillColor=#A7C942;shadow=1;spacingTop=0;spacingLeft=0;" vertex="1" parent="1">
                    <mxGeometry x="520" y="450" width="161" height="220" as="geometry"/>
                </mxCell>
                <mxCell id="NdPYWldVcCUI9Mhn2iDV-99" style="shape=tableRow;horizontal=0;startSize=0;swimlaneHead=0;swimlaneBody=0;top=0;left=0;bottom=0;right=0;dropTarget=0;collapsible=0;recursiveResize=0;expand=0;fontStyle=0;strokeColor=inherit;fillColor=#6D8764;" vertex="1" parent="NdPYWldVcCUI9Mhn2iDV-98">
                    <mxGeometry width="161" height="33" as="geometry"/>
                </mxCell>
                <mxCell id="NdPYWldVcCUI9Mhn2iDV-100" value="Customer" style="connectable=0;recursiveResize=0;strokeColor=inherit;fillColor=#6D8764;align=left;fontStyle=1;fontColor=#FFFFFF;html=1;spacingLeft=4;" vertex="1" parent="NdPYWldVcCUI9Mhn2iDV-99">
                    <mxGeometry width="161" height="33" as="geometry">
                        <mxRectangle width="161" height="33" as="alternateBounds"/>
                    </mxGeometry>
                </mxCell>
                <mxCell id="NdPYWldVcCUI9Mhn2iDV-104" value="" style="shape=tableRow;horizontal=0;startSize=0;swimlaneHead=0;swimlaneBody=0;top=0;left=0;bottom=0;right=0;dropTarget=0;collapsible=0;recursiveResize=0;expand=0;fontStyle=0;strokeColor=inherit;fillColor=#9AC7BF;" vertex="1" parent="NdPYWldVcCUI9Mhn2iDV-98">
                    <mxGeometry y="33" width="161" height="32" as="geometry"/>
                </mxCell>
                <mxCell id="NdPYWldVcCUI9Mhn2iDV-105" value="ID" style="connectable=0;recursiveResize=0;strokeColor=inherit;fillColor=inherit;align=left;whiteSpace=wrap;html=1;spacingLeft=8;" vertex="1" parent="NdPYWldVcCUI9Mhn2iDV-104">
                    <mxGeometry width="161" height="32" as="geometry">
                        <mxRectangle width="161" height="32" as="alternateBounds"/>
                    </mxGeometry>
                </mxCell>
                <mxCell id="NdPYWldVcCUI9Mhn2iDV-109" value="" style="shape=tableRow;horizontal=0;startSize=0;swimlaneHead=0;swimlaneBody=0;top=0;left=0;bottom=0;right=0;dropTarget=0;collapsible=0;recursiveResize=0;expand=0;fontStyle=1;strokeColor=inherit;fillColor=#EAF2D3;" vertex="1" parent="NdPYWldVcCUI9Mhn2iDV-98">
                    <mxGeometry y="65" width="161" height="31" as="geometry"/>
                </mxCell>
                <mxCell id="NdPYWldVcCUI9Mhn2iDV-110" value="Primary contact name" style="connectable=0;recursiveResize=0;strokeColor=inherit;fillColor=inherit;whiteSpace=wrap;html=1;align=left;spacingLeft=8;" vertex="1" parent="NdPYWldVcCUI9Mhn2iDV-109">
                    <mxGeometry width="161" height="31" as="geometry">
                        <mxRectangle width="161" height="31" as="alternateBounds"/>
                    </mxGeometry>
                </mxCell>
                <mxCell id="NdPYWldVcCUI9Mhn2iDV-114" style="shape=tableRow;horizontal=0;startSize=0;swimlaneHead=0;swimlaneBody=0;top=0;left=0;bottom=0;right=0;dropTarget=0;collapsible=0;recursiveResize=0;expand=0;fontStyle=1;strokeColor=inherit;fillColor=#9AC7BF;" vertex="1" parent="NdPYWldVcCUI9Mhn2iDV-98">
                    <mxGeometry y="96" width="161" height="31" as="geometry"/>
                </mxCell>
                <mxCell id="NdPYWldVcCUI9Mhn2iDV-115" value="Phone#" style="connectable=0;recursiveResize=0;strokeColor=inherit;fillColor=inherit;whiteSpace=wrap;html=1;align=left;spacingLeft=8;" vertex="1" parent="NdPYWldVcCUI9Mhn2iDV-114">
                    <mxGeometry width="161" height="31" as="geometry">
                        <mxRectangle width="161" height="31" as="alternateBounds"/>
                    </mxGeometry>
                </mxCell>
                <mxCell id="NdPYWldVcCUI9Mhn2iDV-116" style="shape=tableRow;horizontal=0;startSize=0;swimlaneHead=0;swimlaneBody=0;top=0;left=0;bottom=0;right=0;dropTarget=0;collapsible=0;recursiveResize=0;expand=0;fontStyle=1;strokeColor=inherit;fillColor=#EAF2D3;" vertex="1" parent="NdPYWldVcCUI9Mhn2iDV-98">
                    <mxGeometry y="127" width="161" height="31" as="geometry"/>
                </mxCell>
                <mxCell id="NdPYWldVcCUI9Mhn2iDV-117" value="Email" style="connectable=0;recursiveResize=0;strokeColor=inherit;fillColor=inherit;whiteSpace=wrap;html=1;align=left;spacingLeft=8;" vertex="1" parent="NdPYWldVcCUI9Mhn2iDV-116">
                    <mxGeometry width="161" height="31" as="geometry">
                        <mxRectangle width="161" height="31" as="alternateBounds"/>
                    </mxGeometry>
                </mxCell>
                <mxCell id="NdPYWldVcCUI9Mhn2iDV-118" style="shape=tableRow;horizontal=0;startSize=0;swimlaneHead=0;swimlaneBody=0;top=0;left=0;bottom=0;right=0;dropTarget=0;collapsible=0;recursiveResize=0;expand=0;fontStyle=1;strokeColor=inherit;fillColor=#9AC7BF;" vertex="1" parent="NdPYWldVcCUI9Mhn2iDV-98">
                    <mxGeometry y="158" width="161" height="31" as="geometry"/>
                </mxCell>
                <mxCell id="NdPYWldVcCUI9Mhn2iDV-119" value="Preferences" style="connectable=0;recursiveResize=0;strokeColor=inherit;fillColor=inherit;whiteSpace=wrap;html=1;align=left;spacingLeft=8;" vertex="1" parent="NdPYWldVcCUI9Mhn2iDV-118">
                    <mxGeometry width="161" height="31" as="geometry">
                        <mxRectangle width="161" height="31" as="alternateBounds"/>
                    </mxGeometry>
                </mxCell>
                <mxCell id="NdPYWldVcCUI9Mhn2iDV-120" style="shape=tableRow;horizontal=0;startSize=0;swimlaneHead=0;swimlaneBody=0;top=0;left=0;bottom=0;right=0;dropTarget=0;collapsible=0;recursiveResize=0;expand=0;fontStyle=1;strokeColor=inherit;fillColor=#EAF2D3;" vertex="1" parent="NdPYWldVcCUI9Mhn2iDV-98">
                    <mxGeometry y="189" width="161" height="31" as="geometry"/>
                </mxCell>
                <mxCell id="NdPYWldVcCUI9Mhn2iDV-121" value="Location" style="connectable=0;recursiveResize=0;strokeColor=inherit;fillColor=inherit;whiteSpace=wrap;html=1;align=left;spacingLeft=8;" vertex="1" parent="NdPYWldVcCUI9Mhn2iDV-120">
                    <mxGeometry width="161" height="31" as="geometry">
                        <mxRectangle width="161" height="31" as="alternateBounds"/>
                    </mxGeometry>
                </mxCell>
                <mxCell id="NdPYWldVcCUI9Mhn2iDV-122" value="Assets" style="childLayout=tableLayout;recursiveResize=0;strokeColor=#FFFFFF;fillColor=#A7C942;shadow=1;spacingTop=0;spacingLeft=0;" vertex="1" parent="1">
                    <mxGeometry x="437.32" y="688" width="200" height="282" as="geometry"/>
                </mxCell>
                <mxCell id="NdPYWldVcCUI9Mhn2iDV-123" style="shape=tableRow;horizontal=0;startSize=0;swimlaneHead=0;swimlaneBody=0;top=0;left=0;bottom=0;right=0;dropTarget=0;collapsible=0;recursiveResize=0;expand=0;fontStyle=0;strokeColor=inherit;fillColor=#6D8764;" vertex="1" parent="NdPYWldVcCUI9Mhn2iDV-122">
                    <mxGeometry width="200" height="33" as="geometry"/>
                </mxCell>
                <mxCell id="NdPYWldVcCUI9Mhn2iDV-124" value="Restaurant" style="connectable=0;recursiveResize=0;strokeColor=inherit;fillColor=#6D8764;align=left;fontStyle=1;fontColor=#FFFFFF;html=1;spacingLeft=4;" vertex="1" parent="NdPYWldVcCUI9Mhn2iDV-123">
                    <mxGeometry width="200" height="33" as="geometry">
                        <mxRectangle width="200" height="33" as="alternateBounds"/>
                    </mxGeometry>
                </mxCell>
                <mxCell id="NdPYWldVcCUI9Mhn2iDV-125" value="" style="shape=tableRow;horizontal=0;startSize=0;swimlaneHead=0;swimlaneBody=0;top=0;left=0;bottom=0;right=0;dropTarget=0;collapsible=0;recursiveResize=0;expand=0;fontStyle=0;strokeColor=inherit;fillColor=#9AC7BF;" vertex="1" parent="NdPYWldVcCUI9Mhn2iDV-122">
                    <mxGeometry y="33" width="200" height="32" as="geometry"/>
                </mxCell>
                <mxCell id="NdPYWldVcCUI9Mhn2iDV-126" value="ID" style="connectable=0;recursiveResize=0;strokeColor=inherit;fillColor=inherit;align=left;whiteSpace=wrap;html=1;spacingLeft=8;" vertex="1" parent="NdPYWldVcCUI9Mhn2iDV-125">
                    <mxGeometry width="200" height="32" as="geometry">
                        <mxRectangle width="200" height="32" as="alternateBounds"/>
                    </mxGeometry>
                </mxCell>
                <mxCell id="NdPYWldVcCUI9Mhn2iDV-127" value="" style="shape=tableRow;horizontal=0;startSize=0;swimlaneHead=0;swimlaneBody=0;top=0;left=0;bottom=0;right=0;dropTarget=0;collapsible=0;recursiveResize=0;expand=0;fontStyle=1;strokeColor=inherit;fillColor=#EAF2D3;" vertex="1" parent="NdPYWldVcCUI9Mhn2iDV-122">
                    <mxGeometry y="65" width="200" height="31" as="geometry"/>
                </mxCell>
                <mxCell id="NdPYWldVcCUI9Mhn2iDV-128" value="Table layout (#tables, seats per table)" style="connectable=0;recursiveResize=0;strokeColor=inherit;fillColor=inherit;whiteSpace=wrap;html=1;align=left;spacingLeft=8;" vertex="1" parent="NdPYWldVcCUI9Mhn2iDV-127">
                    <mxGeometry width="200" height="31" as="geometry">
                        <mxRectangle width="200" height="31" as="alternateBounds"/>
                    </mxGeometry>
                </mxCell>
                <mxCell id="NdPYWldVcCUI9Mhn2iDV-129" style="shape=tableRow;horizontal=0;startSize=0;swimlaneHead=0;swimlaneBody=0;top=0;left=0;bottom=0;right=0;dropTarget=0;collapsible=0;recursiveResize=0;expand=0;fontStyle=1;strokeColor=inherit;fillColor=#9AC7BF;" vertex="1" parent="NdPYWldVcCUI9Mhn2iDV-122">
                    <mxGeometry y="96" width="200" height="31" as="geometry"/>
                </mxCell>
                <mxCell id="NdPYWldVcCUI9Mhn2iDV-130" value="Walk-up holdback" style="connectable=0;recursiveResize=0;strokeColor=inherit;fillColor=inherit;whiteSpace=wrap;html=1;align=left;spacingLeft=8;" vertex="1" parent="NdPYWldVcCUI9Mhn2iDV-129">
                    <mxGeometry width="200" height="31" as="geometry">
                        <mxRectangle width="200" height="31" as="alternateBounds"/>
                    </mxGeometry>
                </mxCell>
                <mxCell id="NdPYWldVcCUI9Mhn2iDV-131" style="shape=tableRow;horizontal=0;startSize=0;swimlaneHead=0;swimlaneBody=0;top=0;left=0;bottom=0;right=0;dropTarget=0;collapsible=0;recursiveResize=0;expand=0;fontStyle=1;strokeColor=inherit;fillColor=#EAF2D3;" vertex="1" parent="NdPYWldVcCUI9Mhn2iDV-122">
                    <mxGeometry y="127" width="200" height="31" as="geometry"/>
                </mxCell>
                <mxCell id="NdPYWldVcCUI9Mhn2iDV-132" value="Reservation length" style="connectable=0;recursiveResize=0;strokeColor=inherit;fillColor=inherit;whiteSpace=wrap;html=1;align=left;spacingLeft=8;" vertex="1" parent="NdPYWldVcCUI9Mhn2iDV-131">
                    <mxGeometry width="200" height="31" as="geometry">
                        <mxRectangle width="200" height="31" as="alternateBounds"/>
                    </mxGeometry>
                </mxCell>
                <mxCell id="NdPYWldVcCUI9Mhn2iDV-133" style="shape=tableRow;horizontal=0;startSize=0;swimlaneHead=0;swimlaneBody=0;top=0;left=0;bottom=0;right=0;dropTarget=0;collapsible=0;recursiveResize=0;expand=0;fontStyle=1;strokeColor=inherit;fillColor=#9AC7BF;" vertex="1" parent="NdPYWldVcCUI9Mhn2iDV-122">
                    <mxGeometry y="158" width="200" height="31" as="geometry"/>
                </mxCell>
                <mxCell id="NdPYWldVcCUI9Mhn2iDV-134" value="Business hours" style="connectable=0;recursiveResize=0;strokeColor=inherit;fillColor=inherit;whiteSpace=wrap;html=1;align=left;spacingLeft=8;" vertex="1" parent="NdPYWldVcCUI9Mhn2iDV-133">
                    <mxGeometry width="200" height="31" as="geometry">
                        <mxRectangle width="200" height="31" as="alternateBounds"/>
                    </mxGeometry>
                </mxCell>
                <mxCell id="NdPYWldVcCUI9Mhn2iDV-135" style="shape=tableRow;horizontal=0;startSize=0;swimlaneHead=0;swimlaneBody=0;top=0;left=0;bottom=0;right=0;dropTarget=0;collapsible=0;recursiveResize=0;expand=0;fontStyle=1;strokeColor=inherit;fillColor=#EAF2D3;" vertex="1" parent="NdPYWldVcCUI9Mhn2iDV-122">
                    <mxGeometry y="189" width="200" height="31" as="geometry"/>
                </mxCell>
                <mxCell id="NdPYWldVcCUI9Mhn2iDV-136" value="Name" style="connectable=0;recursiveResize=0;strokeColor=inherit;fillColor=inherit;whiteSpace=wrap;html=1;align=left;spacingLeft=8;" vertex="1" parent="NdPYWldVcCUI9Mhn2iDV-135">
                    <mxGeometry width="200" height="31" as="geometry">
                        <mxRectangle width="200" height="31" as="alternateBounds"/>
                    </mxGeometry>
                </mxCell>
                <mxCell id="NdPYWldVcCUI9Mhn2iDV-137" style="shape=tableRow;horizontal=0;startSize=0;swimlaneHead=0;swimlaneBody=0;top=0;left=0;bottom=0;right=0;dropTarget=0;collapsible=0;recursiveResize=0;expand=0;fontStyle=1;strokeColor=inherit;fillColor=#9AC7BF;" vertex="1" parent="NdPYWldVcCUI9Mhn2iDV-122">
                    <mxGeometry y="220" width="200" height="31" as="geometry"/>
                </mxCell>
                <mxCell id="NdPYWldVcCUI9Mhn2iDV-138" value="Address" style="connectable=0;recursiveResize=0;strokeColor=inherit;fillColor=inherit;whiteSpace=wrap;html=1;align=left;spacingLeft=8;" vertex="1" parent="NdPYWldVcCUI9Mhn2iDV-137">
                    <mxGeometry width="200" height="31" as="geometry">
                        <mxRectangle width="200" height="31" as="alternateBounds"/>
                    </mxGeometry>
                </mxCell>
                <mxCell id="NdPYWldVcCUI9Mhn2iDV-139" style="shape=tableRow;horizontal=0;startSize=0;swimlaneHead=0;swimlaneBody=0;top=0;left=0;bottom=0;right=0;dropTarget=0;collapsible=0;recursiveResize=0;expand=0;fontStyle=1;strokeColor=inherit;fillColor=#EAF2D3;" vertex="1" parent="NdPYWldVcCUI9Mhn2iDV-122">
                    <mxGeometry y="251" width="200" height="31" as="geometry"/>
                </mxCell>
                <mxCell id="NdPYWldVcCUI9Mhn2iDV-140" value="Phone" style="connectable=0;recursiveResize=0;strokeColor=inherit;fillColor=inherit;whiteSpace=wrap;html=1;align=left;spacingLeft=8;" vertex="1" parent="NdPYWldVcCUI9Mhn2iDV-139">
                    <mxGeometry width="200" height="31" as="geometry">
                        <mxRectangle width="200" height="31" as="alternateBounds"/>
                    </mxGeometry>
                </mxCell>
                <mxCell id="NdPYWldVcCUI9Mhn2iDV-141" value="Assets" style="childLayout=tableLayout;recursiveResize=0;strokeColor=#FFFFFF;fillColor=#A7C942;shadow=1;spacingTop=0;spacingLeft=0;" vertex="1" parent="1">
                    <mxGeometry x="650" y="686" width="164.8499999999999" height="220" as="geometry"/>
                </mxCell>
                <mxCell id="NdPYWldVcCUI9Mhn2iDV-142" style="shape=tableRow;horizontal=0;startSize=0;swimlaneHead=0;swimlaneBody=0;top=0;left=0;bottom=0;right=0;dropTarget=0;collapsible=0;recursiveResize=0;expand=0;fontStyle=0;strokeColor=inherit;fillColor=#6D8764;" vertex="1" parent="NdPYWldVcCUI9Mhn2iDV-141">
                    <mxGeometry width="164.8499999999999" height="33" as="geometry"/>
                </mxCell>
                <mxCell id="NdPYWldVcCUI9Mhn2iDV-143" value="Reservation" style="connectable=0;recursiveResize=0;strokeColor=inherit;fillColor=#6D8764;align=left;fontStyle=1;fontColor=#FFFFFF;html=1;spacingLeft=4;" vertex="1" parent="NdPYWldVcCUI9Mhn2iDV-142">
                    <mxGeometry width="165" height="33" as="geometry">
                        <mxRectangle width="165" height="33" as="alternateBounds"/>
                    </mxGeometry>
                </mxCell>
                <mxCell id="NdPYWldVcCUI9Mhn2iDV-144" value="" style="shape=tableRow;horizontal=0;startSize=0;swimlaneHead=0;swimlaneBody=0;top=0;left=0;bottom=0;right=0;dropTarget=0;collapsible=0;recursiveResize=0;expand=0;fontStyle=0;strokeColor=inherit;fillColor=#9AC7BF;" vertex="1" parent="NdPYWldVcCUI9Mhn2iDV-141">
                    <mxGeometry y="33" width="164.8499999999999" height="32" as="geometry"/>
                </mxCell>
                <mxCell id="NdPYWldVcCUI9Mhn2iDV-145" value="ID" style="connectable=0;recursiveResize=0;strokeColor=inherit;fillColor=inherit;align=left;whiteSpace=wrap;html=1;spacingLeft=8;" vertex="1" parent="NdPYWldVcCUI9Mhn2iDV-144">
                    <mxGeometry width="165" height="32" as="geometry">
                        <mxRectangle width="165" height="32" as="alternateBounds"/>
                    </mxGeometry>
                </mxCell>
                <mxCell id="NdPYWldVcCUI9Mhn2iDV-146" value="" style="shape=tableRow;horizontal=0;startSize=0;swimlaneHead=0;swimlaneBody=0;top=0;left=0;bottom=0;right=0;dropTarget=0;collapsible=0;recursiveResize=0;expand=0;fontStyle=1;strokeColor=inherit;fillColor=#EAF2D3;" vertex="1" parent="NdPYWldVcCUI9Mhn2iDV-141">
                    <mxGeometry y="65" width="164.8499999999999" height="31" as="geometry"/>
                </mxCell>
                <mxCell id="NdPYWldVcCUI9Mhn2iDV-147" value="Customer ID" style="connectable=0;recursiveResize=0;strokeColor=inherit;fillColor=inherit;whiteSpace=wrap;html=1;align=left;spacingLeft=8;" vertex="1" parent="NdPYWldVcCUI9Mhn2iDV-146">
                    <mxGeometry width="165" height="31" as="geometry">
                        <mxRectangle width="165" height="31" as="alternateBounds"/>
                    </mxGeometry>
                </mxCell>
                <mxCell id="NdPYWldVcCUI9Mhn2iDV-148" style="shape=tableRow;horizontal=0;startSize=0;swimlaneHead=0;swimlaneBody=0;top=0;left=0;bottom=0;right=0;dropTarget=0;collapsible=0;recursiveResize=0;expand=0;fontStyle=1;strokeColor=inherit;fillColor=#9AC7BF;" vertex="1" parent="NdPYWldVcCUI9Mhn2iDV-141">
                    <mxGeometry y="96" width="164.8499999999999" height="31" as="geometry"/>
                </mxCell>
                <mxCell id="NdPYWldVcCUI9Mhn2iDV-149" value="Restaurant ID" style="connectable=0;recursiveResize=0;strokeColor=inherit;fillColor=inherit;whiteSpace=wrap;html=1;align=left;spacingLeft=8;" vertex="1" parent="NdPYWldVcCUI9Mhn2iDV-148">
                    <mxGeometry width="165" height="31" as="geometry">
                        <mxRectangle width="165" height="31" as="alternateBounds"/>
                    </mxGeometry>
                </mxCell>
                <mxCell id="NdPYWldVcCUI9Mhn2iDV-150" style="shape=tableRow;horizontal=0;startSize=0;swimlaneHead=0;swimlaneBody=0;top=0;left=0;bottom=0;right=0;dropTarget=0;collapsible=0;recursiveResize=0;expand=0;fontStyle=1;strokeColor=inherit;fillColor=#EAF2D3;" vertex="1" parent="NdPYWldVcCUI9Mhn2iDV-141">
                    <mxGeometry y="127" width="164.8499999999999" height="31" as="geometry"/>
                </mxCell>
                <mxCell id="NdPYWldVcCUI9Mhn2iDV-151" value="Time slot" style="connectable=0;recursiveResize=0;strokeColor=inherit;fillColor=inherit;whiteSpace=wrap;html=1;align=left;spacingLeft=8;" vertex="1" parent="NdPYWldVcCUI9Mhn2iDV-150">
                    <mxGeometry width="165" height="31" as="geometry">
                        <mxRectangle width="165" height="31" as="alternateBounds"/>
                    </mxGeometry>
                </mxCell>
                <mxCell id="NdPYWldVcCUI9Mhn2iDV-152" style="shape=tableRow;horizontal=0;startSize=0;swimlaneHead=0;swimlaneBody=0;top=0;left=0;bottom=0;right=0;dropTarget=0;collapsible=0;recursiveResize=0;expand=0;fontStyle=1;strokeColor=inherit;fillColor=#9AC7BF;" vertex="1" parent="NdPYWldVcCUI9Mhn2iDV-141">
                    <mxGeometry y="158" width="164.8499999999999" height="31" as="geometry"/>
                </mxCell>
                <mxCell id="NdPYWldVcCUI9Mhn2iDV-153" value="Party size" style="connectable=0;recursiveResize=0;strokeColor=inherit;fillColor=inherit;whiteSpace=wrap;html=1;align=left;spacingLeft=8;" vertex="1" parent="NdPYWldVcCUI9Mhn2iDV-152">
                    <mxGeometry width="165" height="31" as="geometry">
                        <mxRectangle width="165" height="31" as="alternateBounds"/>
                    </mxGeometry>
                </mxCell>
                <mxCell id="NdPYWldVcCUI9Mhn2iDV-154" style="shape=tableRow;horizontal=0;startSize=0;swimlaneHead=0;swimlaneBody=0;top=0;left=0;bottom=0;right=0;dropTarget=0;collapsible=0;recursiveResize=0;expand=0;fontStyle=1;strokeColor=inherit;fillColor=#EAF2D3;" vertex="1" parent="NdPYWldVcCUI9Mhn2iDV-141">
                    <mxGeometry y="189" width="164.8499999999999" height="31" as="geometry"/>
                </mxCell>
                <mxCell id="NdPYWldVcCUI9Mhn2iDV-155" value="Notes (special occassion,&lt;br&gt;dietary restrictions, etc.)" style="connectable=0;recursiveResize=0;strokeColor=inherit;fillColor=inherit;whiteSpace=wrap;html=1;align=left;spacingLeft=8;" vertex="1" parent="NdPYWldVcCUI9Mhn2iDV-154">
                    <mxGeometry width="165" height="31" as="geometry">
                        <mxRectangle width="165" height="31" as="alternateBounds"/>
                    </mxGeometry>
                </mxCell>
                <mxCell id="OrIDWXb5mLOPvRGpg2cg-60" value="&lt;font style=&quot;font-size: 26px; color: rgb(255, 128, 0);&quot;&gt;Web Crawler&lt;/font&gt;" style="text;html=1;align=left;verticalAlign=middle;resizable=0;points=[];autosize=1;strokeColor=none;fillColor=none;" vertex="1" parent="1">
                    <mxGeometry x="340" y="1010" width="170" height="40" as="geometry"/>
                </mxCell>
                <mxCell id="OrIDWXb5mLOPvRGpg2cg-61" value="Web pages are vertices on a directed graph. And links between them are the edges of the graph. So fundamentally this is a graph traversal problem.&lt;div&gt;What kind of traversal algorithm.&amp;nbsp;&lt;/div&gt;&lt;div&gt;&amp;nbsp; - BFS&amp;nbsp;&lt;/div&gt;&lt;div&gt;&amp;nbsp; - DFS&lt;/div&gt;&lt;div&gt;No. of links on any one page are pretty finite - Breadth&lt;/div&gt;&lt;div&gt;But depth of the internet is pretty much infinite.&lt;/div&gt;&lt;div&gt;&lt;br&gt;&lt;/div&gt;&lt;div&gt;So in this BFS is the only real tractable solution here&lt;/div&gt;" style="text;html=1;align=left;verticalAlign=middle;resizable=0;points=[];autosize=1;strokeColor=none;fillColor=none;" vertex="1" parent="1">
                    <mxGeometry x="13.430000000000007" y="1040" width="810" height="130" as="geometry"/>
                </mxCell>
                <mxCell id="OrIDWXb5mLOPvRGpg2cg-65" value="" style="edgeStyle=none;html=1;endArrow=none;endFill=0;strokeColor=#000099;" edge="1" parent="1" source="OrIDWXb5mLOPvRGpg2cg-63" target="OrIDWXb5mLOPvRGpg2cg-64">
                    <mxGeometry relative="1" as="geometry"/>
                </mxCell>
                <mxCell id="OrIDWXb5mLOPvRGpg2cg-67" value="" style="edgeStyle=none;html=1;endArrow=none;endFill=0;strokeColor=#000099;" edge="1" parent="1" source="OrIDWXb5mLOPvRGpg2cg-63" target="OrIDWXb5mLOPvRGpg2cg-66">
                    <mxGeometry relative="1" as="geometry"/>
                </mxCell>
                <mxCell id="OrIDWXb5mLOPvRGpg2cg-63" value="" style="ellipse;whiteSpace=wrap;html=1;aspect=fixed;fillColor=#009999;" vertex="1" parent="1">
                    <mxGeometry x="300.84000000000003" y="1170" width="40" height="40" as="geometry"/>
                </mxCell>
                <mxCell id="OrIDWXb5mLOPvRGpg2cg-71" value="" style="edgeStyle=none;html=1;endArrow=none;endFill=0;strokeColor=#000099;" edge="1" parent="1" source="OrIDWXb5mLOPvRGpg2cg-64" target="OrIDWXb5mLOPvRGpg2cg-70">
                    <mxGeometry relative="1" as="geometry"/>
                </mxCell>
                <mxCell id="OrIDWXb5mLOPvRGpg2cg-64" value="" style="ellipse;whiteSpace=wrap;html=1;aspect=fixed;fillColor=#009999;" vertex="1" parent="1">
                    <mxGeometry x="394.89" y="1100" width="40" height="40" as="geometry"/>
                </mxCell>
                <mxCell id="OrIDWXb5mLOPvRGpg2cg-66" value="" style="ellipse;whiteSpace=wrap;html=1;aspect=fixed;fillColor=#009999;" vertex="1" parent="1">
                    <mxGeometry x="391.40999999999997" y="1240" width="40" height="40" as="geometry"/>
                </mxCell>
                <mxCell id="OrIDWXb5mLOPvRGpg2cg-73" value="" style="edgeStyle=none;html=1;endArrow=none;endFill=0;strokeColor=#000099;" edge="1" parent="1" source="OrIDWXb5mLOPvRGpg2cg-70" target="OrIDWXb5mLOPvRGpg2cg-72">
                    <mxGeometry relative="1" as="geometry"/>
                </mxCell>
                <mxCell id="OrIDWXb5mLOPvRGpg2cg-75" value="" style="edgeStyle=none;html=1;endArrow=none;endFill=0;strokeColor=#000099;" edge="1" parent="1" source="OrIDWXb5mLOPvRGpg2cg-70" target="OrIDWXb5mLOPvRGpg2cg-74">
                    <mxGeometry relative="1" as="geometry"/>
                </mxCell>
                <mxCell id="OrIDWXb5mLOPvRGpg2cg-70" value="" style="ellipse;whiteSpace=wrap;html=1;aspect=fixed;fillColor=#009999;" vertex="1" parent="1">
                    <mxGeometry x="462.29999999999995" y="1170" width="40" height="40" as="geometry"/>
                </mxCell>
                <mxCell id="OrIDWXb5mLOPvRGpg2cg-77" value="" style="edgeStyle=none;html=1;endArrow=none;endFill=0;strokeColor=#000099;" edge="1" parent="1" source="OrIDWXb5mLOPvRGpg2cg-72" target="OrIDWXb5mLOPvRGpg2cg-76">
                    <mxGeometry relative="1" as="geometry"/>
                </mxCell>
                <mxCell id="OrIDWXb5mLOPvRGpg2cg-72" value="" style="ellipse;whiteSpace=wrap;html=1;aspect=fixed;fillColor=#009999;" vertex="1" parent="1">
                    <mxGeometry x="545.18" y="1100" width="40" height="40" as="geometry"/>
                </mxCell>
                <mxCell id="OrIDWXb5mLOPvRGpg2cg-74" value="" style="ellipse;whiteSpace=wrap;html=1;aspect=fixed;fillColor=#009999;" vertex="1" parent="1">
                    <mxGeometry x="544.89" y="1240" width="40" height="40" as="geometry"/>
                </mxCell>
                <mxCell id="OrIDWXb5mLOPvRGpg2cg-76" value="" style="ellipse;whiteSpace=wrap;html=1;aspect=fixed;fillColor=#009999;" vertex="1" parent="1">
                    <mxGeometry x="665.18" y="1100" width="40" height="40" as="geometry"/>
                </mxCell>
                <mxCell id="OrIDWXb5mLOPvRGpg2cg-78" value="How BFS works" style="text;html=1;align=center;verticalAlign=middle;resizable=0;points=[];autosize=1;strokeColor=none;fillColor=none;" vertex="1" parent="1">
                    <mxGeometry x="21.1" y="1288" width="110" height="30" as="geometry"/>
                </mxCell>
                <mxCell id="OrIDWXb5mLOPvRGpg2cg-79" value="" style="edgeStyle=none;html=1;endArrow=none;endFill=0;strokeColor=#000099;" edge="1" source="OrIDWXb5mLOPvRGpg2cg-81" target="OrIDWXb5mLOPvRGpg2cg-83" parent="1">
                    <mxGeometry relative="1" as="geometry"/>
                </mxCell>
                <mxCell id="OrIDWXb5mLOPvRGpg2cg-80" value="" style="edgeStyle=none;html=1;endArrow=none;endFill=0;strokeColor=#000099;orthogonalLoop=0;comic=0;movable=1;" edge="1" source="OrIDWXb5mLOPvRGpg2cg-81" target="OrIDWXb5mLOPvRGpg2cg-84" parent="1">
                    <mxGeometry relative="1" as="geometry"/>
                </mxCell>
                <mxCell id="OrIDWXb5mLOPvRGpg2cg-81" value="" style="ellipse;whiteSpace=wrap;html=1;aspect=fixed;fillColor=#009999;" vertex="1" parent="1">
                    <mxGeometry x="70.70000000000005" y="1440" width="40" height="40" as="geometry"/>
                </mxCell>
                <mxCell id="OrIDWXb5mLOPvRGpg2cg-82" value="" style="edgeStyle=none;html=1;endArrow=none;endFill=0;strokeColor=#000099;" edge="1" source="OrIDWXb5mLOPvRGpg2cg-83" target="OrIDWXb5mLOPvRGpg2cg-87" parent="1">
                    <mxGeometry relative="1" as="geometry"/>
                </mxCell>
                <mxCell id="OrIDWXb5mLOPvRGpg2cg-83" value="" style="ellipse;whiteSpace=wrap;html=1;aspect=fixed;fillColor=#009999;" vertex="1" parent="1">
                    <mxGeometry x="164.75" y="1370" width="40" height="40" as="geometry"/>
                </mxCell>
                <mxCell id="OrIDWXb5mLOPvRGpg2cg-84" value="" style="ellipse;whiteSpace=wrap;html=1;aspect=fixed;fillColor=#009999;" vertex="1" parent="1">
                    <mxGeometry x="161.26999999999998" y="1510" width="40" height="40" as="geometry"/>
                </mxCell>
                <mxCell id="OrIDWXb5mLOPvRGpg2cg-85" value="" style="edgeStyle=none;html=1;endArrow=none;endFill=0;strokeColor=#000099;" edge="1" source="OrIDWXb5mLOPvRGpg2cg-87" target="OrIDWXb5mLOPvRGpg2cg-89" parent="1">
                    <mxGeometry relative="1" as="geometry"/>
                </mxCell>
                <mxCell id="OrIDWXb5mLOPvRGpg2cg-86" value="" style="edgeStyle=none;html=1;endArrow=none;endFill=0;strokeColor=#000099;orthogonalLoop=0;comic=0;movable=1;" edge="1" source="OrIDWXb5mLOPvRGpg2cg-87" target="OrIDWXb5mLOPvRGpg2cg-90" parent="1">
                    <mxGeometry relative="1" as="geometry"/>
                </mxCell>
                <mxCell id="OrIDWXb5mLOPvRGpg2cg-87" value="" style="ellipse;whiteSpace=wrap;html=1;aspect=fixed;fillColor=#009999;" vertex="1" parent="1">
                    <mxGeometry x="232.15999999999997" y="1440" width="40" height="40" as="geometry"/>
                </mxCell>
                <mxCell id="OrIDWXb5mLOPvRGpg2cg-88" value="" style="edgeStyle=none;html=1;endArrow=none;endFill=0;strokeColor=#000099;" edge="1" source="OrIDWXb5mLOPvRGpg2cg-89" target="OrIDWXb5mLOPvRGpg2cg-91" parent="1">
                    <mxGeometry relative="1" as="geometry"/>
                </mxCell>
                <mxCell id="OrIDWXb5mLOPvRGpg2cg-89" value="" style="ellipse;whiteSpace=wrap;html=1;aspect=fixed;fillColor=#009999;" vertex="1" parent="1">
                    <mxGeometry x="315.03999999999996" y="1370" width="40" height="40" as="geometry"/>
                </mxCell>
                <mxCell id="OrIDWXb5mLOPvRGpg2cg-90" value="" style="ellipse;whiteSpace=wrap;html=1;aspect=fixed;fillColor=#009999;" vertex="1" parent="1">
                    <mxGeometry x="314.75" y="1510" width="40" height="40" as="geometry"/>
                </mxCell>
                <mxCell id="OrIDWXb5mLOPvRGpg2cg-91" value="" style="ellipse;whiteSpace=wrap;html=1;aspect=fixed;fillColor=#009999;" vertex="1" parent="1">
                    <mxGeometry x="435.03999999999996" y="1370" width="40" height="40" as="geometry"/>
                </mxCell>
                <mxCell id="OrIDWXb5mLOPvRGpg2cg-92" value="" style="endArrow=classic;html=1;orthogonalLoop=0;comic=0;movable=1;" edge="1" parent="1">
                    <mxGeometry width="50" height="50" relative="1" as="geometry">
                        <mxPoint x="60" y="1370" as="sourcePoint"/>
                        <mxPoint x="77.56" y="1435" as="targetPoint"/>
                    </mxGeometry>
                </mxCell>
                <mxCell id="OrIDWXb5mLOPvRGpg2cg-93" value="" style="endArrow=classic;html=1;" edge="1" parent="1">
                    <mxGeometry width="50" height="50" relative="1" as="geometry">
                        <mxPoint x="157.59" y="1300" as="sourcePoint"/>
                        <mxPoint x="175.15" y="1365" as="targetPoint"/>
                    </mxGeometry>
                </mxCell>
                <mxCell id="OrIDWXb5mLOPvRGpg2cg-94" value="" style="endArrow=classic;html=1;orthogonalLoop=0;comic=0;movable=1;" edge="1" parent="1">
                    <mxGeometry width="50" height="50" relative="1" as="geometry">
                        <mxPoint x="130" y="1590" as="sourcePoint"/>
                        <mxPoint x="161.27" y="1545" as="targetPoint"/>
                    </mxGeometry>
                </mxCell>
                <mxCell id="OrIDWXb5mLOPvRGpg2cg-95" value="traverse all the child nodes before going further down" style="text;html=1;align=center;verticalAlign=middle;resizable=0;points=[];autosize=1;strokeColor=none;fillColor=none;" vertex="1" parent="1">
                    <mxGeometry x="152.3" y="1288" width="310" height="30" as="geometry"/>
                </mxCell>
                <mxCell id="OrIDWXb5mLOPvRGpg2cg-96" value="&lt;font style=&quot;color: rgb(255, 255, 255);&quot;&gt;hash&lt;/font&gt;" style="rounded=0;whiteSpace=wrap;html=1;fillColor=#009999;" vertex="1" parent="1">
                    <mxGeometry x="135.3" y="1770" width="54" height="20" as="geometry"/>
                </mxCell>
                <mxCell id="OrIDWXb5mLOPvRGpg2cg-108" value="" style="edgeStyle=none;html=1;strokeColor=#000099;" edge="1" parent="1" source="OrIDWXb5mLOPvRGpg2cg-97" target="OrIDWXb5mLOPvRGpg2cg-107">
                    <mxGeometry relative="1" as="geometry"/>
                </mxCell>
                <mxCell id="OrIDWXb5mLOPvRGpg2cg-97" value="&lt;font style=&quot;color: rgb(255, 255, 255);&quot;&gt;Queue of URL&#39;s to crawl&lt;/font&gt;" style="rounded=0;whiteSpace=wrap;html=1;fillColor=#009999;" vertex="1" parent="1">
                    <mxGeometry x="106.30000000000001" y="1800" width="112" height="50" as="geometry"/>
                </mxCell>
                <mxCell id="OrIDWXb5mLOPvRGpg2cg-99" value="" style="sketch=0;outlineConnect=0;fontColor=#232F3E;gradientColor=none;fillColor=#232F3D;strokeColor=none;dashed=0;verticalLabelPosition=bottom;verticalAlign=top;align=center;html=1;fontSize=12;fontStyle=0;aspect=fixed;pointerEvents=1;shape=mxgraph.aws4.traditional_server;" vertex="1" parent="1">
                    <mxGeometry x="95.30000000000001" y="1715" width="28.85" height="50" as="geometry"/>
                </mxCell>
                <mxCell id="OrIDWXb5mLOPvRGpg2cg-100" value="" style="sketch=0;outlineConnect=0;fontColor=#232F3E;gradientColor=none;fillColor=#232F3D;strokeColor=none;dashed=0;verticalLabelPosition=bottom;verticalAlign=top;align=center;html=1;fontSize=12;fontStyle=0;aspect=fixed;pointerEvents=1;shape=mxgraph.aws4.traditional_server;" vertex="1" parent="1">
                    <mxGeometry x="157.35" y="1715" width="28.85" height="50" as="geometry"/>
                </mxCell>
                <mxCell id="OrIDWXb5mLOPvRGpg2cg-101" value="" style="sketch=0;outlineConnect=0;fontColor=#232F3E;gradientColor=none;fillColor=#232F3D;strokeColor=none;dashed=0;verticalLabelPosition=bottom;verticalAlign=top;align=center;html=1;fontSize=12;fontStyle=0;aspect=fixed;pointerEvents=1;shape=mxgraph.aws4.traditional_server;" vertex="1" parent="1">
                    <mxGeometry x="216.76999999999998" y="1715" width="28.85" height="50" as="geometry"/>
                </mxCell>
                <mxCell id="OrIDWXb5mLOPvRGpg2cg-102" value="" style="sketch=0;outlineConnect=0;fontColor=#232F3E;gradientColor=none;fillColor=#232F3D;strokeColor=none;dashed=0;verticalLabelPosition=bottom;verticalAlign=top;align=center;html=1;fontSize=12;fontStyle=0;aspect=fixed;pointerEvents=1;shape=mxgraph.aws4.traditional_server;" vertex="1" parent="1">
                    <mxGeometry x="97.55000000000001" y="1650" width="28.85" height="50" as="geometry"/>
                </mxCell>
                <mxCell id="OrIDWXb5mLOPvRGpg2cg-103" value="" style="sketch=0;outlineConnect=0;fontColor=#232F3E;gradientColor=none;fillColor=#232F3D;strokeColor=none;dashed=0;verticalLabelPosition=bottom;verticalAlign=top;align=center;html=1;fontSize=12;fontStyle=0;aspect=fixed;pointerEvents=1;shape=mxgraph.aws4.traditional_server;" vertex="1" parent="1">
                    <mxGeometry x="159.6" y="1650" width="28.85" height="50" as="geometry"/>
                </mxCell>
                <mxCell id="OrIDWXb5mLOPvRGpg2cg-104" value="" style="sketch=0;outlineConnect=0;fontColor=#232F3E;gradientColor=none;fillColor=#232F3D;strokeColor=none;dashed=0;verticalLabelPosition=bottom;verticalAlign=top;align=center;html=1;fontSize=12;fontStyle=0;aspect=fixed;pointerEvents=1;shape=mxgraph.aws4.traditional_server;" vertex="1" parent="1">
                    <mxGeometry x="219.01999999999998" y="1650" width="28.85" height="50" as="geometry"/>
                </mxCell>
                <mxCell id="OrIDWXb5mLOPvRGpg2cg-105" value="" style="endArrow=classic;html=1;strokeColor=#000099;" edge="1" parent="1">
                    <mxGeometry width="50" height="50" relative="1" as="geometry">
                        <mxPoint x="20" y="1820" as="sourcePoint"/>
                        <mxPoint x="100" y="1820" as="targetPoint"/>
                    </mxGeometry>
                </mxCell>
                <mxCell id="OrIDWXb5mLOPvRGpg2cg-106" value="Initial URLs" style="text;html=1;align=center;verticalAlign=middle;resizable=0;points=[];autosize=1;strokeColor=none;fillColor=none;" vertex="1" parent="1">
                    <mxGeometry x="11.669999999999998" y="1770" width="80" height="30" as="geometry"/>
                </mxCell>
                <mxCell id="OrIDWXb5mLOPvRGpg2cg-114" value="" style="edgeStyle=none;html=1;strokeColor=#000099;" edge="1" parent="1" source="OrIDWXb5mLOPvRGpg2cg-107" target="OrIDWXb5mLOPvRGpg2cg-113">
                    <mxGeometry relative="1" as="geometry"/>
                </mxCell>
                <mxCell id="OrIDWXb5mLOPvRGpg2cg-118" style="edgeStyle=none;html=1;strokeColor=#000099;" edge="1" parent="1" source="OrIDWXb5mLOPvRGpg2cg-107" target="OrIDWXb5mLOPvRGpg2cg-109">
                    <mxGeometry relative="1" as="geometry"/>
                </mxCell>
                <mxCell id="OrIDWXb5mLOPvRGpg2cg-119" style="edgeStyle=none;html=1;strokeColor=#000099;" edge="1" parent="1" source="OrIDWXb5mLOPvRGpg2cg-107" target="OrIDWXb5mLOPvRGpg2cg-112">
                    <mxGeometry relative="1" as="geometry"/>
                </mxCell>
                <mxCell id="OrIDWXb5mLOPvRGpg2cg-107" value="&lt;font style=&quot;color: rgb(255, 255, 255);&quot;&gt;Page downloader&lt;/font&gt;" style="rounded=0;whiteSpace=wrap;html=1;fillColor=#009999;" vertex="1" parent="1">
                    <mxGeometry x="298.3" y="1800" width="112" height="50" as="geometry"/>
                </mxCell>
                <mxCell id="OrIDWXb5mLOPvRGpg2cg-109" value="&lt;font style=&quot;color: rgb(255, 255, 255);&quot;&gt;Content&lt;/font&gt;&lt;div&gt;&lt;font style=&quot;color: rgb(255, 255, 255);&quot;&gt;hashes&lt;/font&gt;&lt;/div&gt;" style="shape=cylinder3;whiteSpace=wrap;html=1;boundedLbl=1;backgroundOutline=1;size=9;fillColor=#009999;shadow=0;gradientColor=none;fillStyle=auto;" vertex="1" parent="1">
                    <mxGeometry x="318" y="1690" width="72" height="60" as="geometry"/>
                </mxCell>
                <mxCell id="OrIDWXb5mLOPvRGpg2cg-112" value="&lt;font style=&quot;color: rgb(255, 255, 255);&quot;&gt;Distributed&amp;nbsp;&lt;/font&gt;&lt;div&gt;&lt;font style=&quot;color: rgb(255, 255, 255);&quot;&gt;Storage&lt;/font&gt;&lt;/div&gt;" style="shape=cylinder3;whiteSpace=wrap;html=1;boundedLbl=1;backgroundOutline=1;size=9;fillColor=#009999;shadow=0;gradientColor=none;fillStyle=auto;" vertex="1" parent="1">
                    <mxGeometry x="319.41" y="1910" width="72" height="60" as="geometry"/>
                </mxCell>
                <mxCell id="OrIDWXb5mLOPvRGpg2cg-116" value="" style="edgeStyle=none;html=1;strokeColor=#000099;" edge="1" parent="1" source="OrIDWXb5mLOPvRGpg2cg-113" target="OrIDWXb5mLOPvRGpg2cg-115">
                    <mxGeometry relative="1" as="geometry"/>
                </mxCell>
                <mxCell id="OrIDWXb5mLOPvRGpg2cg-113" value="&lt;font style=&quot;color: rgb(255, 255, 255);&quot;&gt;URL extraction,&amp;nbsp; normalization&lt;/font&gt;" style="rounded=0;whiteSpace=wrap;html=1;fillColor=#009999;" vertex="1" parent="1">
                    <mxGeometry x="490.29999999999995" y="1800" width="112" height="50" as="geometry"/>
                </mxCell>
                <mxCell id="OrIDWXb5mLOPvRGpg2cg-115" value="&lt;font style=&quot;color: rgb(255, 255, 255);&quot;&gt;URL filter/stoplist&lt;/font&gt;" style="rounded=0;whiteSpace=wrap;html=1;fillColor=#009999;" vertex="1" parent="1">
                    <mxGeometry x="490.29999999999995" y="1930" width="112" height="50" as="geometry"/>
                </mxCell>
                <mxCell id="OrIDWXb5mLOPvRGpg2cg-117" value="&lt;font style=&quot;color: rgb(255, 255, 255);&quot;&gt;URLs processed&lt;/font&gt;" style="shape=cylinder3;whiteSpace=wrap;html=1;boundedLbl=1;backgroundOutline=1;size=9;fillColor=#009999;shadow=0;gradientColor=none;fillStyle=auto;" vertex="1" parent="1">
                    <mxGeometry x="696.4200000000001" y="1930" width="72" height="60" as="geometry"/>
                </mxCell>
                <mxCell id="OrIDWXb5mLOPvRGpg2cg-120" style="edgeStyle=none;html=1;entryX=0;entryY=0.5;entryDx=0;entryDy=0;entryPerimeter=0;strokeColor=#000099;" edge="1" parent="1" source="OrIDWXb5mLOPvRGpg2cg-115" target="OrIDWXb5mLOPvRGpg2cg-117">
                    <mxGeometry relative="1" as="geometry"/>
                </mxCell>
                <mxCell id="OrIDWXb5mLOPvRGpg2cg-121" style="edgeStyle=none;html=1;entryX=0.363;entryY=0.98;entryDx=0;entryDy=0;entryPerimeter=0;rounded=0;curved=1;exitX=0.56;exitY=1;exitDx=0;exitDy=0;exitPerimeter=0;strokeColor=#000099;" edge="1" parent="1">
                    <mxGeometry relative="1" as="geometry">
                        <mxPoint x="558.36" y="1981" as="sourcePoint"/>
                        <mxPoint x="152.2959999999999" y="1850" as="targetPoint"/>
                        <Array as="points">
                            <mxPoint x="300" y="2130"/>
                        </Array>
                    </mxGeometry>
                </mxCell>
                <mxCell id="OrIDWXb5mLOPvRGpg2cg-122" value="Page downloader" style="text;html=1;align=center;verticalAlign=middle;resizable=0;points=[];autosize=1;strokeColor=none;fillColor=none;" vertex="1" parent="1">
                    <mxGeometry x="315.79" y="2070" width="120" height="30" as="geometry"/>
                </mxCell>
                <mxCell id="OrIDWXb5mLOPvRGpg2cg-123" value="&lt;font style=&quot;color: rgb(255, 255, 255);&quot;&gt;hash&lt;/font&gt;" style="whiteSpace=wrap;html=1;gradientColor=none;fillColor=#009999;" vertex="1" parent="1">
                    <mxGeometry x="300.6" y="2108" width="140" height="40" as="geometry"/>
                </mxCell>
                <mxCell id="OrIDWXb5mLOPvRGpg2cg-124" value="Assets" style="childLayout=tableLayout;recursiveResize=0;strokeColor=#FFFFFF;fillColor=#A7C942;shadow=1;spacingTop=0;spacingLeft=0;" vertex="1" parent="1">
                    <mxGeometry x="670" y="1220" width="164.8499999999999" height="220" as="geometry"/>
                </mxCell>
                <mxCell id="OrIDWXb5mLOPvRGpg2cg-125" style="shape=tableRow;horizontal=0;startSize=0;swimlaneHead=0;swimlaneBody=0;top=0;left=0;bottom=0;right=0;dropTarget=0;collapsible=0;recursiveResize=0;expand=0;fontStyle=0;strokeColor=inherit;fillColor=#6D8764;" vertex="1" parent="OrIDWXb5mLOPvRGpg2cg-124">
                    <mxGeometry width="164.8499999999999" height="33" as="geometry"/>
                </mxCell>
                <mxCell id="OrIDWXb5mLOPvRGpg2cg-126" value="Reservation" style="connectable=0;recursiveResize=0;strokeColor=inherit;fillColor=#6D8764;align=left;fontStyle=1;fontColor=#FFFFFF;html=1;spacingLeft=4;" vertex="1" parent="OrIDWXb5mLOPvRGpg2cg-125">
                    <mxGeometry width="165" height="33" as="geometry">
                        <mxRectangle width="165" height="33" as="alternateBounds"/>
                    </mxGeometry>
                </mxCell>
                <mxCell id="OrIDWXb5mLOPvRGpg2cg-127" value="" style="shape=tableRow;horizontal=0;startSize=0;swimlaneHead=0;swimlaneBody=0;top=0;left=0;bottom=0;right=0;dropTarget=0;collapsible=0;recursiveResize=0;expand=0;fontStyle=0;strokeColor=inherit;fillColor=#9AC7BF;" vertex="1" parent="OrIDWXb5mLOPvRGpg2cg-124">
                    <mxGeometry y="33" width="164.8499999999999" height="32" as="geometry"/>
                </mxCell>
                <mxCell id="OrIDWXb5mLOPvRGpg2cg-128" value="ID" style="connectable=0;recursiveResize=0;strokeColor=inherit;fillColor=inherit;align=left;whiteSpace=wrap;html=1;spacingLeft=8;" vertex="1" parent="OrIDWXb5mLOPvRGpg2cg-127">
                    <mxGeometry width="165" height="32" as="geometry">
                        <mxRectangle width="165" height="32" as="alternateBounds"/>
                    </mxGeometry>
                </mxCell>
                <mxCell id="OrIDWXb5mLOPvRGpg2cg-129" value="" style="shape=tableRow;horizontal=0;startSize=0;swimlaneHead=0;swimlaneBody=0;top=0;left=0;bottom=0;right=0;dropTarget=0;collapsible=0;recursiveResize=0;expand=0;fontStyle=1;strokeColor=inherit;fillColor=#EAF2D3;" vertex="1" parent="OrIDWXb5mLOPvRGpg2cg-124">
                    <mxGeometry y="65" width="164.8499999999999" height="31" as="geometry"/>
                </mxCell>
                <mxCell id="OrIDWXb5mLOPvRGpg2cg-130" value="Customer ID" style="connectable=0;recursiveResize=0;strokeColor=inherit;fillColor=inherit;whiteSpace=wrap;html=1;align=left;spacingLeft=8;" vertex="1" parent="OrIDWXb5mLOPvRGpg2cg-129">
                    <mxGeometry width="165" height="31" as="geometry">
                        <mxRectangle width="165" height="31" as="alternateBounds"/>
                    </mxGeometry>
                </mxCell>
                <mxCell id="OrIDWXb5mLOPvRGpg2cg-131" style="shape=tableRow;horizontal=0;startSize=0;swimlaneHead=0;swimlaneBody=0;top=0;left=0;bottom=0;right=0;dropTarget=0;collapsible=0;recursiveResize=0;expand=0;fontStyle=1;strokeColor=inherit;fillColor=#9AC7BF;" vertex="1" parent="OrIDWXb5mLOPvRGpg2cg-124">
                    <mxGeometry y="96" width="164.8499999999999" height="31" as="geometry"/>
                </mxCell>
                <mxCell id="OrIDWXb5mLOPvRGpg2cg-132" value="Restaurant ID" style="connectable=0;recursiveResize=0;strokeColor=inherit;fillColor=inherit;whiteSpace=wrap;html=1;align=left;spacingLeft=8;" vertex="1" parent="OrIDWXb5mLOPvRGpg2cg-131">
                    <mxGeometry width="165" height="31" as="geometry">
                        <mxRectangle width="165" height="31" as="alternateBounds"/>
                    </mxGeometry>
                </mxCell>
                <mxCell id="OrIDWXb5mLOPvRGpg2cg-133" style="shape=tableRow;horizontal=0;startSize=0;swimlaneHead=0;swimlaneBody=0;top=0;left=0;bottom=0;right=0;dropTarget=0;collapsible=0;recursiveResize=0;expand=0;fontStyle=1;strokeColor=inherit;fillColor=#EAF2D3;" vertex="1" parent="OrIDWXb5mLOPvRGpg2cg-124">
                    <mxGeometry y="127" width="164.8499999999999" height="31" as="geometry"/>
                </mxCell>
                <mxCell id="OrIDWXb5mLOPvRGpg2cg-134" value="Time slot" style="connectable=0;recursiveResize=0;strokeColor=inherit;fillColor=inherit;whiteSpace=wrap;html=1;align=left;spacingLeft=8;" vertex="1" parent="OrIDWXb5mLOPvRGpg2cg-133">
                    <mxGeometry width="165" height="31" as="geometry">
                        <mxRectangle width="165" height="31" as="alternateBounds"/>
                    </mxGeometry>
                </mxCell>
                <mxCell id="OrIDWXb5mLOPvRGpg2cg-135" style="shape=tableRow;horizontal=0;startSize=0;swimlaneHead=0;swimlaneBody=0;top=0;left=0;bottom=0;right=0;dropTarget=0;collapsible=0;recursiveResize=0;expand=0;fontStyle=1;strokeColor=inherit;fillColor=#9AC7BF;" vertex="1" parent="OrIDWXb5mLOPvRGpg2cg-124">
                    <mxGeometry y="158" width="164.8499999999999" height="31" as="geometry"/>
                </mxCell>
                <mxCell id="OrIDWXb5mLOPvRGpg2cg-136" value="Party size" style="connectable=0;recursiveResize=0;strokeColor=inherit;fillColor=inherit;whiteSpace=wrap;html=1;align=left;spacingLeft=8;" vertex="1" parent="OrIDWXb5mLOPvRGpg2cg-135">
                    <mxGeometry width="165" height="31" as="geometry">
                        <mxRectangle width="165" height="31" as="alternateBounds"/>
                    </mxGeometry>
                </mxCell>
                <mxCell id="OrIDWXb5mLOPvRGpg2cg-137" style="shape=tableRow;horizontal=0;startSize=0;swimlaneHead=0;swimlaneBody=0;top=0;left=0;bottom=0;right=0;dropTarget=0;collapsible=0;recursiveResize=0;expand=0;fontStyle=1;strokeColor=inherit;fillColor=#EAF2D3;" vertex="1" parent="OrIDWXb5mLOPvRGpg2cg-124">
                    <mxGeometry y="189" width="164.8499999999999" height="31" as="geometry"/>
                </mxCell>
                <mxCell id="OrIDWXb5mLOPvRGpg2cg-138" value="Notes (special occassion,&lt;br&gt;dietary restrictions, etc.)" style="connectable=0;recursiveResize=0;strokeColor=inherit;fillColor=inherit;whiteSpace=wrap;html=1;align=left;spacingLeft=8;" vertex="1" parent="OrIDWXb5mLOPvRGpg2cg-137">
                    <mxGeometry width="165" height="31" as="geometry">
                        <mxRectangle width="165" height="31" as="alternateBounds"/>
                    </mxGeometry>
                </mxCell>
                <mxCell id="OrIDWXb5mLOPvRGpg2cg-139" value="Assets" style="childLayout=tableLayout;recursiveResize=0;strokeColor=#FFFFFF;fillColor=#A7C942;shadow=1;spacingTop=0;spacingLeft=0;" vertex="1" parent="1">
                    <mxGeometry x="650" y="1660" width="164.8499999999999" height="220" as="geometry"/>
                </mxCell>
                <mxCell id="OrIDWXb5mLOPvRGpg2cg-140" style="shape=tableRow;horizontal=0;startSize=0;swimlaneHead=0;swimlaneBody=0;top=0;left=0;bottom=0;right=0;dropTarget=0;collapsible=0;recursiveResize=0;expand=0;fontStyle=0;strokeColor=inherit;fillColor=#6D8764;" vertex="1" parent="OrIDWXb5mLOPvRGpg2cg-139">
                    <mxGeometry width="164.8499999999999" height="33" as="geometry"/>
                </mxCell>
                <mxCell id="OrIDWXb5mLOPvRGpg2cg-141" value="Reservation" style="connectable=0;recursiveResize=0;strokeColor=inherit;fillColor=#6D8764;align=left;fontStyle=1;fontColor=#FFFFFF;html=1;spacingLeft=4;" vertex="1" parent="OrIDWXb5mLOPvRGpg2cg-140">
                    <mxGeometry width="165" height="33" as="geometry">
                        <mxRectangle width="165" height="33" as="alternateBounds"/>
                    </mxGeometry>
                </mxCell>
                <mxCell id="OrIDWXb5mLOPvRGpg2cg-142" value="" style="shape=tableRow;horizontal=0;startSize=0;swimlaneHead=0;swimlaneBody=0;top=0;left=0;bottom=0;right=0;dropTarget=0;collapsible=0;recursiveResize=0;expand=0;fontStyle=0;strokeColor=inherit;fillColor=#9AC7BF;" vertex="1" parent="OrIDWXb5mLOPvRGpg2cg-139">
                    <mxGeometry y="33" width="164.8499999999999" height="32" as="geometry"/>
                </mxCell>
                <mxCell id="OrIDWXb5mLOPvRGpg2cg-143" value="ID" style="connectable=0;recursiveResize=0;strokeColor=inherit;fillColor=inherit;align=left;whiteSpace=wrap;html=1;spacingLeft=8;" vertex="1" parent="OrIDWXb5mLOPvRGpg2cg-142">
                    <mxGeometry width="165" height="32" as="geometry">
                        <mxRectangle width="165" height="32" as="alternateBounds"/>
                    </mxGeometry>
                </mxCell>
                <mxCell id="OrIDWXb5mLOPvRGpg2cg-144" value="" style="shape=tableRow;horizontal=0;startSize=0;swimlaneHead=0;swimlaneBody=0;top=0;left=0;bottom=0;right=0;dropTarget=0;collapsible=0;recursiveResize=0;expand=0;fontStyle=1;strokeColor=inherit;fillColor=#EAF2D3;" vertex="1" parent="OrIDWXb5mLOPvRGpg2cg-139">
                    <mxGeometry y="65" width="164.8499999999999" height="31" as="geometry"/>
                </mxCell>
                <mxCell id="OrIDWXb5mLOPvRGpg2cg-145" value="Customer ID" style="connectable=0;recursiveResize=0;strokeColor=inherit;fillColor=inherit;whiteSpace=wrap;html=1;align=left;spacingLeft=8;" vertex="1" parent="OrIDWXb5mLOPvRGpg2cg-144">
                    <mxGeometry width="165" height="31" as="geometry">
                        <mxRectangle width="165" height="31" as="alternateBounds"/>
                    </mxGeometry>
                </mxCell>
                <mxCell id="OrIDWXb5mLOPvRGpg2cg-146" style="shape=tableRow;horizontal=0;startSize=0;swimlaneHead=0;swimlaneBody=0;top=0;left=0;bottom=0;right=0;dropTarget=0;collapsible=0;recursiveResize=0;expand=0;fontStyle=1;strokeColor=inherit;fillColor=#9AC7BF;" vertex="1" parent="OrIDWXb5mLOPvRGpg2cg-139">
                    <mxGeometry y="96" width="164.8499999999999" height="31" as="geometry"/>
                </mxCell>
                <mxCell id="OrIDWXb5mLOPvRGpg2cg-147" value="Restaurant ID" style="connectable=0;recursiveResize=0;strokeColor=inherit;fillColor=inherit;whiteSpace=wrap;html=1;align=left;spacingLeft=8;" vertex="1" parent="OrIDWXb5mLOPvRGpg2cg-146">
                    <mxGeometry width="165" height="31" as="geometry">
                        <mxRectangle width="165" height="31" as="alternateBounds"/>
                    </mxGeometry>
                </mxCell>
                <mxCell id="OrIDWXb5mLOPvRGpg2cg-148" style="shape=tableRow;horizontal=0;startSize=0;swimlaneHead=0;swimlaneBody=0;top=0;left=0;bottom=0;right=0;dropTarget=0;collapsible=0;recursiveResize=0;expand=0;fontStyle=1;strokeColor=inherit;fillColor=#EAF2D3;" vertex="1" parent="OrIDWXb5mLOPvRGpg2cg-139">
                    <mxGeometry y="127" width="164.8499999999999" height="31" as="geometry"/>
                </mxCell>
                <mxCell id="OrIDWXb5mLOPvRGpg2cg-149" value="Time slot" style="connectable=0;recursiveResize=0;strokeColor=inherit;fillColor=inherit;whiteSpace=wrap;html=1;align=left;spacingLeft=8;" vertex="1" parent="OrIDWXb5mLOPvRGpg2cg-148">
                    <mxGeometry width="165" height="31" as="geometry">
                        <mxRectangle width="165" height="31" as="alternateBounds"/>
                    </mxGeometry>
                </mxCell>
                <mxCell id="OrIDWXb5mLOPvRGpg2cg-150" style="shape=tableRow;horizontal=0;startSize=0;swimlaneHead=0;swimlaneBody=0;top=0;left=0;bottom=0;right=0;dropTarget=0;collapsible=0;recursiveResize=0;expand=0;fontStyle=1;strokeColor=inherit;fillColor=#9AC7BF;" vertex="1" parent="OrIDWXb5mLOPvRGpg2cg-139">
                    <mxGeometry y="158" width="164.8499999999999" height="31" as="geometry"/>
                </mxCell>
                <mxCell id="OrIDWXb5mLOPvRGpg2cg-151" value="Party size" style="connectable=0;recursiveResize=0;strokeColor=inherit;fillColor=inherit;whiteSpace=wrap;html=1;align=left;spacingLeft=8;" vertex="1" parent="OrIDWXb5mLOPvRGpg2cg-150">
                    <mxGeometry width="165" height="31" as="geometry">
                        <mxRectangle width="165" height="31" as="alternateBounds"/>
                    </mxGeometry>
                </mxCell>
                <mxCell id="OrIDWXb5mLOPvRGpg2cg-152" style="shape=tableRow;horizontal=0;startSize=0;swimlaneHead=0;swimlaneBody=0;top=0;left=0;bottom=0;right=0;dropTarget=0;collapsible=0;recursiveResize=0;expand=0;fontStyle=1;strokeColor=inherit;fillColor=#EAF2D3;" vertex="1" parent="OrIDWXb5mLOPvRGpg2cg-139">
                    <mxGeometry y="189" width="164.8499999999999" height="31" as="geometry"/>
                </mxCell>
                <mxCell id="OrIDWXb5mLOPvRGpg2cg-153" value="Notes (special occassion,&lt;br&gt;dietary restrictions, etc.)" style="connectable=0;recursiveResize=0;strokeColor=inherit;fillColor=inherit;whiteSpace=wrap;html=1;align=left;spacingLeft=8;" vertex="1" parent="OrIDWXb5mLOPvRGpg2cg-152">
                    <mxGeometry width="165" height="31" as="geometry">
                        <mxRectangle width="165" height="31" as="alternateBounds"/>
                    </mxGeometry>
                </mxCell>
                <mxCell id="OrIDWXb5mLOPvRGpg2cg-154" value="Assets" style="childLayout=tableLayout;recursiveResize=0;strokeColor=#FFFFFF;fillColor=#A7C942;shadow=1;spacingTop=0;spacingLeft=0;" vertex="1" parent="1">
                    <mxGeometry x="100" y="2180" width="100" height="158" as="geometry"/>
                </mxCell>
                <mxCell id="OrIDWXb5mLOPvRGpg2cg-155" style="shape=tableRow;horizontal=0;startSize=0;swimlaneHead=0;swimlaneBody=0;top=0;left=0;bottom=0;right=0;dropTarget=0;collapsible=0;recursiveResize=0;expand=0;fontStyle=0;strokeColor=inherit;fillColor=#6D8764;" vertex="1" parent="OrIDWXb5mLOPvRGpg2cg-154">
                    <mxGeometry width="100" height="33" as="geometry"/>
                </mxCell>
                <mxCell id="OrIDWXb5mLOPvRGpg2cg-156" value="a.com" style="connectable=0;recursiveResize=0;strokeColor=inherit;fillColor=#6D8764;align=left;fontStyle=1;fontColor=#FFFFFF;html=1;spacingLeft=4;" vertex="1" parent="OrIDWXb5mLOPvRGpg2cg-155">
                    <mxGeometry width="100" height="33" as="geometry">
                        <mxRectangle width="100" height="33" as="alternateBounds"/>
                    </mxGeometry>
                </mxCell>
                <mxCell id="OrIDWXb5mLOPvRGpg2cg-157" value="" style="shape=tableRow;horizontal=0;startSize=0;swimlaneHead=0;swimlaneBody=0;top=0;left=0;bottom=0;right=0;dropTarget=0;collapsible=0;recursiveResize=0;expand=0;fontStyle=0;strokeColor=inherit;fillColor=#9AC7BF;" vertex="1" parent="OrIDWXb5mLOPvRGpg2cg-154">
                    <mxGeometry y="33" width="100" height="32" as="geometry"/>
                </mxCell>
                <mxCell id="OrIDWXb5mLOPvRGpg2cg-158" value="Page 1" style="connectable=0;recursiveResize=0;strokeColor=inherit;fillColor=inherit;align=left;whiteSpace=wrap;html=1;spacingLeft=8;" vertex="1" parent="OrIDWXb5mLOPvRGpg2cg-157">
                    <mxGeometry width="100" height="32" as="geometry">
                        <mxRectangle width="100" height="32" as="alternateBounds"/>
                    </mxGeometry>
                </mxCell>
                <mxCell id="OrIDWXb5mLOPvRGpg2cg-159" value="" style="shape=tableRow;horizontal=0;startSize=0;swimlaneHead=0;swimlaneBody=0;top=0;left=0;bottom=0;right=0;dropTarget=0;collapsible=0;recursiveResize=0;expand=0;fontStyle=1;strokeColor=inherit;fillColor=#EAF2D3;" vertex="1" parent="OrIDWXb5mLOPvRGpg2cg-154">
                    <mxGeometry y="65" width="100" height="31" as="geometry"/>
                </mxCell>
                <mxCell id="OrIDWXb5mLOPvRGpg2cg-160" value="Page 2" style="connectable=0;recursiveResize=0;strokeColor=inherit;fillColor=inherit;whiteSpace=wrap;html=1;align=left;spacingLeft=8;" vertex="1" parent="OrIDWXb5mLOPvRGpg2cg-159">
                    <mxGeometry width="100" height="31" as="geometry">
                        <mxRectangle width="100" height="31" as="alternateBounds"/>
                    </mxGeometry>
                </mxCell>
                <mxCell id="OrIDWXb5mLOPvRGpg2cg-161" style="shape=tableRow;horizontal=0;startSize=0;swimlaneHead=0;swimlaneBody=0;top=0;left=0;bottom=0;right=0;dropTarget=0;collapsible=0;recursiveResize=0;expand=0;fontStyle=1;strokeColor=inherit;fillColor=#9AC7BF;" vertex="1" parent="OrIDWXb5mLOPvRGpg2cg-154">
                    <mxGeometry y="96" width="100" height="31" as="geometry"/>
                </mxCell>
                <mxCell id="OrIDWXb5mLOPvRGpg2cg-162" value="Page 3" style="connectable=0;recursiveResize=0;strokeColor=inherit;fillColor=inherit;whiteSpace=wrap;html=1;align=left;spacingLeft=8;" vertex="1" parent="OrIDWXb5mLOPvRGpg2cg-161">
                    <mxGeometry width="100" height="31" as="geometry">
                        <mxRectangle width="100" height="31" as="alternateBounds"/>
                    </mxGeometry>
                </mxCell>
                <mxCell id="OrIDWXb5mLOPvRGpg2cg-163" style="shape=tableRow;horizontal=0;startSize=0;swimlaneHead=0;swimlaneBody=0;top=0;left=0;bottom=0;right=0;dropTarget=0;collapsible=0;recursiveResize=0;expand=0;fontStyle=1;strokeColor=inherit;fillColor=#EAF2D3;" vertex="1" parent="OrIDWXb5mLOPvRGpg2cg-154">
                    <mxGeometry y="127" width="100" height="31" as="geometry"/>
                </mxCell>
                <mxCell id="OrIDWXb5mLOPvRGpg2cg-164" value="..." style="connectable=0;recursiveResize=0;strokeColor=inherit;fillColor=inherit;whiteSpace=wrap;html=1;align=left;spacingLeft=8;" vertex="1" parent="OrIDWXb5mLOPvRGpg2cg-163">
                    <mxGeometry width="100" height="31" as="geometry">
                        <mxRectangle width="100" height="31" as="alternateBounds"/>
                    </mxGeometry>
                </mxCell>
                <mxCell id="OrIDWXb5mLOPvRGpg2cg-180" value="Assets" style="childLayout=tableLayout;recursiveResize=0;strokeColor=#FFFFFF;fillColor=#A7C942;shadow=1;spacingTop=0;spacingLeft=0;" vertex="1" parent="1">
                    <mxGeometry x="225.15" y="2180" width="100" height="158" as="geometry"/>
                </mxCell>
                <mxCell id="OrIDWXb5mLOPvRGpg2cg-181" style="shape=tableRow;horizontal=0;startSize=0;swimlaneHead=0;swimlaneBody=0;top=0;left=0;bottom=0;right=0;dropTarget=0;collapsible=0;recursiveResize=0;expand=0;fontStyle=0;strokeColor=inherit;fillColor=#6D8764;" vertex="1" parent="OrIDWXb5mLOPvRGpg2cg-180">
                    <mxGeometry width="100" height="33" as="geometry"/>
                </mxCell>
                <mxCell id="OrIDWXb5mLOPvRGpg2cg-182" value="b.com" style="connectable=0;recursiveResize=0;strokeColor=inherit;fillColor=#6D8764;align=left;fontStyle=1;fontColor=#FFFFFF;html=1;spacingLeft=4;" vertex="1" parent="OrIDWXb5mLOPvRGpg2cg-181">
                    <mxGeometry width="100" height="33" as="geometry">
                        <mxRectangle width="100" height="33" as="alternateBounds"/>
                    </mxGeometry>
                </mxCell>
                <mxCell id="OrIDWXb5mLOPvRGpg2cg-183" value="" style="shape=tableRow;horizontal=0;startSize=0;swimlaneHead=0;swimlaneBody=0;top=0;left=0;bottom=0;right=0;dropTarget=0;collapsible=0;recursiveResize=0;expand=0;fontStyle=0;strokeColor=inherit;fillColor=#9AC7BF;" vertex="1" parent="OrIDWXb5mLOPvRGpg2cg-180">
                    <mxGeometry y="33" width="100" height="32" as="geometry"/>
                </mxCell>
                <mxCell id="OrIDWXb5mLOPvRGpg2cg-184" value="Page 1" style="connectable=0;recursiveResize=0;strokeColor=inherit;fillColor=inherit;align=left;whiteSpace=wrap;html=1;spacingLeft=8;" vertex="1" parent="OrIDWXb5mLOPvRGpg2cg-183">
                    <mxGeometry width="100" height="32" as="geometry">
                        <mxRectangle width="100" height="32" as="alternateBounds"/>
                    </mxGeometry>
                </mxCell>
                <mxCell id="OrIDWXb5mLOPvRGpg2cg-185" value="" style="shape=tableRow;horizontal=0;startSize=0;swimlaneHead=0;swimlaneBody=0;top=0;left=0;bottom=0;right=0;dropTarget=0;collapsible=0;recursiveResize=0;expand=0;fontStyle=1;strokeColor=inherit;fillColor=#EAF2D3;" vertex="1" parent="OrIDWXb5mLOPvRGpg2cg-180">
                    <mxGeometry y="65" width="100" height="31" as="geometry"/>
                </mxCell>
                <mxCell id="OrIDWXb5mLOPvRGpg2cg-186" value="Page 2" style="connectable=0;recursiveResize=0;strokeColor=inherit;fillColor=inherit;whiteSpace=wrap;html=1;align=left;spacingLeft=8;" vertex="1" parent="OrIDWXb5mLOPvRGpg2cg-185">
                    <mxGeometry width="100" height="31" as="geometry">
                        <mxRectangle width="100" height="31" as="alternateBounds"/>
                    </mxGeometry>
                </mxCell>
                <mxCell id="OrIDWXb5mLOPvRGpg2cg-187" style="shape=tableRow;horizontal=0;startSize=0;swimlaneHead=0;swimlaneBody=0;top=0;left=0;bottom=0;right=0;dropTarget=0;collapsible=0;recursiveResize=0;expand=0;fontStyle=1;strokeColor=inherit;fillColor=#9AC7BF;" vertex="1" parent="OrIDWXb5mLOPvRGpg2cg-180">
                    <mxGeometry y="96" width="100" height="31" as="geometry"/>
                </mxCell>
                <mxCell id="OrIDWXb5mLOPvRGpg2cg-188" value="Page 3" style="connectable=0;recursiveResize=0;strokeColor=inherit;fillColor=inherit;whiteSpace=wrap;html=1;align=left;spacingLeft=8;" vertex="1" parent="OrIDWXb5mLOPvRGpg2cg-187">
                    <mxGeometry width="100" height="31" as="geometry">
                        <mxRectangle width="100" height="31" as="alternateBounds"/>
                    </mxGeometry>
                </mxCell>
                <mxCell id="OrIDWXb5mLOPvRGpg2cg-189" style="shape=tableRow;horizontal=0;startSize=0;swimlaneHead=0;swimlaneBody=0;top=0;left=0;bottom=0;right=0;dropTarget=0;collapsible=0;recursiveResize=0;expand=0;fontStyle=1;strokeColor=inherit;fillColor=#EAF2D3;" vertex="1" parent="OrIDWXb5mLOPvRGpg2cg-180">
                    <mxGeometry y="127" width="100" height="31" as="geometry"/>
                </mxCell>
                <mxCell id="OrIDWXb5mLOPvRGpg2cg-190" value="..." style="connectable=0;recursiveResize=0;strokeColor=inherit;fillColor=inherit;whiteSpace=wrap;html=1;align=left;spacingLeft=8;" vertex="1" parent="OrIDWXb5mLOPvRGpg2cg-189">
                    <mxGeometry width="100" height="31" as="geometry">
                        <mxRectangle width="100" height="31" as="alternateBounds"/>
                    </mxGeometry>
                </mxCell>
                <mxCell id="OrIDWXb5mLOPvRGpg2cg-192" value="" style="rounded=0;whiteSpace=wrap;html=1;" vertex="1" parent="1">
                    <mxGeometry x="406.42" y="2170" width="290" height="200" as="geometry"/>
                </mxCell>
                <mxCell id="OrIDWXb5mLOPvRGpg2cg-193" value="Assets" style="childLayout=tableLayout;recursiveResize=0;strokeColor=#FFFFFF;fillColor=#A7C942;shadow=1;spacingTop=0;spacingLeft=0;" vertex="1" parent="1">
                    <mxGeometry x="435.72" y="2180" width="100" height="158" as="geometry"/>
                </mxCell>
                <mxCell id="OrIDWXb5mLOPvRGpg2cg-194" style="shape=tableRow;horizontal=0;startSize=0;swimlaneHead=0;swimlaneBody=0;top=0;left=0;bottom=0;right=0;dropTarget=0;collapsible=0;recursiveResize=0;expand=0;fontStyle=0;strokeColor=inherit;fillColor=#6D8764;" vertex="1" parent="OrIDWXb5mLOPvRGpg2cg-193">
                    <mxGeometry width="100" height="33" as="geometry"/>
                </mxCell>
                <mxCell id="OrIDWXb5mLOPvRGpg2cg-195" value="c.com" style="connectable=0;recursiveResize=0;strokeColor=inherit;fillColor=#6D8764;align=left;fontStyle=1;fontColor=#FFFFFF;html=1;spacingLeft=4;" vertex="1" parent="OrIDWXb5mLOPvRGpg2cg-194">
                    <mxGeometry width="100" height="33" as="geometry">
                        <mxRectangle width="100" height="33" as="alternateBounds"/>
                    </mxGeometry>
                </mxCell>
                <mxCell id="OrIDWXb5mLOPvRGpg2cg-196" value="" style="shape=tableRow;horizontal=0;startSize=0;swimlaneHead=0;swimlaneBody=0;top=0;left=0;bottom=0;right=0;dropTarget=0;collapsible=0;recursiveResize=0;expand=0;fontStyle=0;strokeColor=inherit;fillColor=#9AC7BF;" vertex="1" parent="OrIDWXb5mLOPvRGpg2cg-193">
                    <mxGeometry y="33" width="100" height="32" as="geometry"/>
                </mxCell>
                <mxCell id="OrIDWXb5mLOPvRGpg2cg-197" value="Page 1" style="connectable=0;recursiveResize=0;strokeColor=inherit;fillColor=inherit;align=left;whiteSpace=wrap;html=1;spacingLeft=8;" vertex="1" parent="OrIDWXb5mLOPvRGpg2cg-196">
                    <mxGeometry width="100" height="32" as="geometry">
                        <mxRectangle width="100" height="32" as="alternateBounds"/>
                    </mxGeometry>
                </mxCell>
                <mxCell id="OrIDWXb5mLOPvRGpg2cg-198" value="" style="shape=tableRow;horizontal=0;startSize=0;swimlaneHead=0;swimlaneBody=0;top=0;left=0;bottom=0;right=0;dropTarget=0;collapsible=0;recursiveResize=0;expand=0;fontStyle=1;strokeColor=inherit;fillColor=#EAF2D3;" vertex="1" parent="OrIDWXb5mLOPvRGpg2cg-193">
                    <mxGeometry y="65" width="100" height="31" as="geometry"/>
                </mxCell>
                <mxCell id="OrIDWXb5mLOPvRGpg2cg-199" value="Page 2" style="connectable=0;recursiveResize=0;strokeColor=inherit;fillColor=inherit;whiteSpace=wrap;html=1;align=left;spacingLeft=8;" vertex="1" parent="OrIDWXb5mLOPvRGpg2cg-198">
                    <mxGeometry width="100" height="31" as="geometry">
                        <mxRectangle width="100" height="31" as="alternateBounds"/>
                    </mxGeometry>
                </mxCell>
                <mxCell id="OrIDWXb5mLOPvRGpg2cg-200" style="shape=tableRow;horizontal=0;startSize=0;swimlaneHead=0;swimlaneBody=0;top=0;left=0;bottom=0;right=0;dropTarget=0;collapsible=0;recursiveResize=0;expand=0;fontStyle=1;strokeColor=inherit;fillColor=#9AC7BF;" vertex="1" parent="OrIDWXb5mLOPvRGpg2cg-193">
                    <mxGeometry y="96" width="100" height="31" as="geometry"/>
                </mxCell>
                <mxCell id="OrIDWXb5mLOPvRGpg2cg-201" value="Page 3" style="connectable=0;recursiveResize=0;strokeColor=inherit;fillColor=inherit;whiteSpace=wrap;html=1;align=left;spacingLeft=8;" vertex="1" parent="OrIDWXb5mLOPvRGpg2cg-200">
                    <mxGeometry width="100" height="31" as="geometry">
                        <mxRectangle width="100" height="31" as="alternateBounds"/>
                    </mxGeometry>
                </mxCell>
                <mxCell id="OrIDWXb5mLOPvRGpg2cg-202" style="shape=tableRow;horizontal=0;startSize=0;swimlaneHead=0;swimlaneBody=0;top=0;left=0;bottom=0;right=0;dropTarget=0;collapsible=0;recursiveResize=0;expand=0;fontStyle=1;strokeColor=inherit;fillColor=#EAF2D3;" vertex="1" parent="OrIDWXb5mLOPvRGpg2cg-193">
                    <mxGeometry y="127" width="100" height="31" as="geometry"/>
                </mxCell>
                <mxCell id="OrIDWXb5mLOPvRGpg2cg-203" value="..." style="connectable=0;recursiveResize=0;strokeColor=inherit;fillColor=inherit;whiteSpace=wrap;html=1;align=left;spacingLeft=8;" vertex="1" parent="OrIDWXb5mLOPvRGpg2cg-202">
                    <mxGeometry width="100" height="31" as="geometry">
                        <mxRectangle width="100" height="31" as="alternateBounds"/>
                    </mxGeometry>
                </mxCell>
                <mxCell id="OrIDWXb5mLOPvRGpg2cg-204" value="Assets" style="childLayout=tableLayout;recursiveResize=0;strokeColor=#FFFFFF;fillColor=#A7C942;shadow=1;spacingTop=0;spacingLeft=0;" vertex="1" parent="1">
                    <mxGeometry x="560.87" y="2180" width="100" height="158" as="geometry"/>
                </mxCell>
                <mxCell id="OrIDWXb5mLOPvRGpg2cg-205" style="shape=tableRow;horizontal=0;startSize=0;swimlaneHead=0;swimlaneBody=0;top=0;left=0;bottom=0;right=0;dropTarget=0;collapsible=0;recursiveResize=0;expand=0;fontStyle=0;strokeColor=inherit;fillColor=#6D8764;" vertex="1" parent="OrIDWXb5mLOPvRGpg2cg-204">
                    <mxGeometry width="100" height="33" as="geometry"/>
                </mxCell>
                <mxCell id="OrIDWXb5mLOPvRGpg2cg-206" value="d.com" style="connectable=0;recursiveResize=0;strokeColor=inherit;fillColor=#6D8764;align=left;fontStyle=1;fontColor=#FFFFFF;html=1;spacingLeft=4;" vertex="1" parent="OrIDWXb5mLOPvRGpg2cg-205">
                    <mxGeometry width="100" height="33" as="geometry">
                        <mxRectangle width="100" height="33" as="alternateBounds"/>
                    </mxGeometry>
                </mxCell>
                <mxCell id="OrIDWXb5mLOPvRGpg2cg-207" value="" style="shape=tableRow;horizontal=0;startSize=0;swimlaneHead=0;swimlaneBody=0;top=0;left=0;bottom=0;right=0;dropTarget=0;collapsible=0;recursiveResize=0;expand=0;fontStyle=0;strokeColor=inherit;fillColor=#9AC7BF;" vertex="1" parent="OrIDWXb5mLOPvRGpg2cg-204">
                    <mxGeometry y="33" width="100" height="32" as="geometry"/>
                </mxCell>
                <mxCell id="OrIDWXb5mLOPvRGpg2cg-208" value="Page 1" style="connectable=0;recursiveResize=0;strokeColor=inherit;fillColor=inherit;align=left;whiteSpace=wrap;html=1;spacingLeft=8;" vertex="1" parent="OrIDWXb5mLOPvRGpg2cg-207">
                    <mxGeometry width="100" height="32" as="geometry">
                        <mxRectangle width="100" height="32" as="alternateBounds"/>
                    </mxGeometry>
                </mxCell>
                <mxCell id="OrIDWXb5mLOPvRGpg2cg-209" value="" style="shape=tableRow;horizontal=0;startSize=0;swimlaneHead=0;swimlaneBody=0;top=0;left=0;bottom=0;right=0;dropTarget=0;collapsible=0;recursiveResize=0;expand=0;fontStyle=1;strokeColor=inherit;fillColor=#EAF2D3;" vertex="1" parent="OrIDWXb5mLOPvRGpg2cg-204">
                    <mxGeometry y="65" width="100" height="31" as="geometry"/>
                </mxCell>
                <mxCell id="OrIDWXb5mLOPvRGpg2cg-210" value="Page 2" style="connectable=0;recursiveResize=0;strokeColor=inherit;fillColor=inherit;whiteSpace=wrap;html=1;align=left;spacingLeft=8;" vertex="1" parent="OrIDWXb5mLOPvRGpg2cg-209">
                    <mxGeometry width="100" height="31" as="geometry">
                        <mxRectangle width="100" height="31" as="alternateBounds"/>
                    </mxGeometry>
                </mxCell>
                <mxCell id="OrIDWXb5mLOPvRGpg2cg-211" style="shape=tableRow;horizontal=0;startSize=0;swimlaneHead=0;swimlaneBody=0;top=0;left=0;bottom=0;right=0;dropTarget=0;collapsible=0;recursiveResize=0;expand=0;fontStyle=1;strokeColor=inherit;fillColor=#9AC7BF;" vertex="1" parent="OrIDWXb5mLOPvRGpg2cg-204">
                    <mxGeometry y="96" width="100" height="31" as="geometry"/>
                </mxCell>
                <mxCell id="OrIDWXb5mLOPvRGpg2cg-212" value="Page 3" style="connectable=0;recursiveResize=0;strokeColor=inherit;fillColor=inherit;whiteSpace=wrap;html=1;align=left;spacingLeft=8;" vertex="1" parent="OrIDWXb5mLOPvRGpg2cg-211">
                    <mxGeometry width="100" height="31" as="geometry">
                        <mxRectangle width="100" height="31" as="alternateBounds"/>
                    </mxGeometry>
                </mxCell>
                <mxCell id="OrIDWXb5mLOPvRGpg2cg-213" style="shape=tableRow;horizontal=0;startSize=0;swimlaneHead=0;swimlaneBody=0;top=0;left=0;bottom=0;right=0;dropTarget=0;collapsible=0;recursiveResize=0;expand=0;fontStyle=1;strokeColor=inherit;fillColor=#EAF2D3;" vertex="1" parent="OrIDWXb5mLOPvRGpg2cg-204">
                    <mxGeometry y="127" width="100" height="31" as="geometry"/>
                </mxCell>
                <mxCell id="OrIDWXb5mLOPvRGpg2cg-214" value="..." style="connectable=0;recursiveResize=0;strokeColor=inherit;fillColor=inherit;whiteSpace=wrap;html=1;align=left;spacingLeft=8;" vertex="1" parent="OrIDWXb5mLOPvRGpg2cg-213">
                    <mxGeometry width="100" height="31" as="geometry">
                        <mxRectangle width="100" height="31" as="alternateBounds"/>
                    </mxGeometry>
                </mxCell>
                <mxCell id="OrIDWXb5mLOPvRGpg2cg-215" value="&lt;font style=&quot;font-size: 26px; color: rgb(255, 128, 0);&quot;&gt;Top Sellers in a Shopping App&lt;/font&gt;" style="text;html=1;align=left;verticalAlign=middle;resizable=0;points=[];autosize=1;strokeColor=none;fillColor=none;" vertex="1" parent="1">
                    <mxGeometry x="285.45" y="2400" width="370" height="40" as="geometry"/>
                </mxCell>
                <mxCell id="OrIDWXb5mLOPvRGpg2cg-219" value="" style="edgeStyle=none;html=1;" edge="1" parent="1" source="OrIDWXb5mLOPvRGpg2cg-216" target="OrIDWXb5mLOPvRGpg2cg-218">
                    <mxGeometry relative="1" as="geometry"/>
                </mxCell>
                <mxCell id="OrIDWXb5mLOPvRGpg2cg-216" value="&lt;font style=&quot;color: rgb(255, 255, 255);&quot;&gt;Purchases(ItemID, category, date purchased)&lt;/font&gt;" style="shape=cylinder3;whiteSpace=wrap;html=1;boundedLbl=1;backgroundOutline=1;size=15;fillColor=#009999;" vertex="1" parent="1">
                    <mxGeometry x="11.67" y="2580" width="106.57" height="130" as="geometry"/>
                </mxCell>
                <mxCell id="OrIDWXb5mLOPvRGpg2cg-218" value="&lt;font style=&quot;color: rgb(255, 255, 255);&quot;&gt;Top-Seller job&lt;br&gt;(Apache Spark?)&lt;/font&gt;" style="whiteSpace=wrap;html=1;fillColor=#009999;" vertex="1" parent="1">
                    <mxGeometry x="208.01999999999998" y="2615" width="120" height="60" as="geometry"/>
                </mxCell>
                <mxCell id="OrIDWXb5mLOPvRGpg2cg-220" value="&lt;font style=&quot;color: rgb(255, 255, 255);&quot;&gt;Top-Sellers&lt;/font&gt;" style="shape=cylinder3;whiteSpace=wrap;html=1;boundedLbl=1;backgroundOutline=1;size=15;fillColor=#009999;" vertex="1" parent="1">
                    <mxGeometry x="415" y="2580" width="105" height="130" as="geometry"/>
                </mxCell>
                <mxCell id="OrIDWXb5mLOPvRGpg2cg-221" style="edgeStyle=none;html=1;entryX=0;entryY=0.5;entryDx=0;entryDy=0;entryPerimeter=0;" edge="1" parent="1" source="OrIDWXb5mLOPvRGpg2cg-218" target="OrIDWXb5mLOPvRGpg2cg-220">
                    <mxGeometry relative="1" as="geometry"/>
                </mxCell>
                <mxCell id="OrIDWXb5mLOPvRGpg2cg-222" value="" style="sketch=0;outlineConnect=0;fontColor=#232F3E;gradientColor=none;fillColor=#232F3D;strokeColor=none;dashed=0;verticalLabelPosition=bottom;verticalAlign=top;align=center;html=1;fontSize=12;fontStyle=0;aspect=fixed;pointerEvents=1;shape=mxgraph.aws4.traditional_server;" vertex="1" parent="1">
                    <mxGeometry x="334.88" y="2440" width="28.85" height="50" as="geometry"/>
                </mxCell>
                <mxCell id="OrIDWXb5mLOPvRGpg2cg-226" style="edgeStyle=none;html=1;entryX=0.5;entryY=0;entryDx=0;entryDy=0;" edge="1" parent="1" source="OrIDWXb5mLOPvRGpg2cg-223" target="OrIDWXb5mLOPvRGpg2cg-225">
                    <mxGeometry relative="1" as="geometry"/>
                </mxCell>
                <mxCell id="OrIDWXb5mLOPvRGpg2cg-223" value="" style="sketch=0;outlineConnect=0;fontColor=#232F3E;gradientColor=none;fillColor=#232F3D;strokeColor=none;dashed=0;verticalLabelPosition=bottom;verticalAlign=top;align=center;html=1;fontSize=12;fontStyle=0;aspect=fixed;pointerEvents=1;shape=mxgraph.aws4.traditional_server;" vertex="1" parent="1">
                    <mxGeometry x="396.92999999999995" y="2440" width="28.85" height="50" as="geometry"/>
                </mxCell>
                <mxCell id="OrIDWXb5mLOPvRGpg2cg-224" value="" style="sketch=0;outlineConnect=0;fontColor=#232F3E;gradientColor=none;fillColor=#232F3D;strokeColor=none;dashed=0;verticalLabelPosition=bottom;verticalAlign=top;align=center;html=1;fontSize=12;fontStyle=0;aspect=fixed;pointerEvents=1;shape=mxgraph.aws4.traditional_server;" vertex="1" parent="1">
                    <mxGeometry x="456.35" y="2440" width="28.85" height="50" as="geometry"/>
                </mxCell>
                <mxCell id="OrIDWXb5mLOPvRGpg2cg-227" style="edgeStyle=none;html=1;" edge="1" parent="1" source="OrIDWXb5mLOPvRGpg2cg-225" target="OrIDWXb5mLOPvRGpg2cg-220">
                    <mxGeometry relative="1" as="geometry"/>
                </mxCell>
                <mxCell id="OrIDWXb5mLOPvRGpg2cg-225" value="&lt;font style=&quot;color: rgb(255, 255, 255);&quot;&gt;Distributed Cache&lt;/font&gt;" style="rounded=0;whiteSpace=wrap;html=1;fillColor=#009999;" vertex="1" parent="1">
                    <mxGeometry x="380.04" y="2520" width="95" height="40" as="geometry"/>
                </mxCell>
                <mxCell id="OrIDWXb5mLOPvRGpg2cg-228" value="&lt;font style=&quot;font-size: 26px; color: rgb(255, 128, 0);&quot;&gt;Video Sharing Service&lt;/font&gt;" style="text;html=1;align=left;verticalAlign=middle;resizable=0;points=[];autosize=1;strokeColor=none;fillColor=none;" vertex="1" parent="1">
                    <mxGeometry x="280.87" y="2740" width="280" height="40" as="geometry"/>
                </mxCell>
                <mxCell id="OrIDWXb5mLOPvRGpg2cg-229" value="Video playback" style="text;html=1;align=center;verticalAlign=middle;resizable=0;points=[];autosize=1;strokeColor=none;fillColor=none;" vertex="1" parent="1">
                    <mxGeometry x="40.7" y="2770" width="100" height="30" as="geometry"/>
                </mxCell>
            </root>
        </mxGraphModel>
    </diagram>
</mxfile>